<svg width="17" height="19" viewBox="0 0 17 19" fill="none" xmlns="http://www.w3.org/2000/svg">
<path d="M14.1292 7.0768V5.10185C14.1292 2.2888 11.6036 0 8.49953 0C5.39549 0 2.8699 2.2888 2.8699 5.10185C2.8699 5.29643 3.02718 5.4537 3.22175 5.4537C3.41633 5.4537 3.5736 5.29643 3.5736 5.10185C3.5736 2.67654 5.78323 0.703704 8.49953 0.703704C11.2158 0.703704 13.4255 2.67654 13.4255 5.10185V7.03704H3.30233C1.89984 7.03704 0.758789 8.17809 0.758789 9.58057V16.4565C0.758789 17.8589 1.89984 19 3.30233 19H13.6967C15.0992 19 16.2403 17.8589 16.2403 16.4565V9.58057C16.2403 8.32587 15.3258 7.28298 14.1292 7.0768ZM9.90694 13.3704C9.90694 14.1466 9.27571 14.7778 8.49953 14.7778C7.72334 14.7778 7.09212 14.1466 7.09212 13.3704V11.2593C7.09212 10.4831 7.72334 9.85185 8.49953 9.85185C9.27571 9.85185 9.90694 10.4831 9.90694 11.2593V13.3704Z" fill="#337D5A"/>
</svg>
