<svg width="17" height="19" viewBox="0 0 17 19" fill="none" xmlns="http://www.w3.org/2000/svg">
<path d="M14.1301 7.0768V5.10185C14.1301 2.2888 11.6045 0 8.50051 0C5.39647 0 2.87088 2.2888 2.87088 5.10185V7.0768C1.67423 7.28298 0.759766 8.32587 0.759766 9.58093V16.4568C0.759766 17.8589 1.90082 19 3.3033 19H13.6977C15.1002 19 16.2412 17.8589 16.2412 16.4565V9.58057C16.2412 8.32587 15.3268 7.28298 14.1301 7.0768ZM3.57458 5.10185C3.57458 2.67654 5.78421 0.703704 8.50051 0.703704C11.2168 0.703704 13.4264 2.67654 13.4264 5.10185V7.03704H3.57458V5.10185ZM9.90791 13.3704C9.90791 14.1466 9.27669 14.7778 8.50051 14.7778C7.72432 14.7778 7.0931 14.1466 7.0931 13.3704V11.2593C7.0931 10.4831 7.72432 9.85185 8.50051 9.85185C9.27669 9.85185 9.90791 10.4831 9.90791 11.2593V13.3704Z" fill="#337D5A"/>
</svg>
