<svg width="22" height="16" viewBox="0 0 22 16" fill="none" xmlns="http://www.w3.org/2000/svg">
<path d="M15.8125 9.71875V1.46875C15.8125 0.900145 15.3499 0.4375 14.7812 0.4375H1.03125C0.462645 0.4375 0 0.900145 0 1.46875V9.71875C0 10.2874 0.462645 10.75 1.03125 10.75H14.7812C15.3499 10.75 15.8125 10.2874 15.8125 9.71875ZM0.6875 9.71875V1.46875C0.6875 1.27921 0.841715 1.125 1.03125 1.125H14.7812C14.9708 1.125 15.125 1.27921 15.125 1.46875V9.71875C15.125 9.90829 14.9708 10.0625 14.7812 10.0625H1.03125C0.841715 10.0625 0.6875 9.90829 0.6875 9.71875Z" fill="white"/>
<path d="M20.9688 5.25H16.8438C16.6539 5.25 16.5 5.40391 16.5 5.59375C16.5 5.78359 16.6539 5.9375 16.8438 5.9375H20.9688C21.1583 5.9375 21.3125 6.09171 21.3125 6.28125V8H16.8438C16.6539 8 16.5 8.15391 16.5 8.34375C16.5 8.53359 16.6539 8.6875 16.8438 8.6875H21.3125V14.5312C21.3125 14.7208 21.1583 14.875 20.9688 14.875H7.21875C7.02921 14.875 6.875 14.7208 6.875 14.5312V11.7812C6.875 11.5914 6.72109 11.4375 6.53125 11.4375C6.34141 11.4375 6.1875 11.5914 6.1875 11.7812V14.5312C6.1875 15.0999 6.65014 15.5625 7.21875 15.5625H20.9688C21.5374 15.5625 22 15.0999 22 14.5312V6.28125C22 5.71264 21.5374 5.25 20.9688 5.25Z" fill="white"/>
<path d="M7.21875 7.65625H5.5C5.31016 7.65625 5.15625 7.81016 5.15625 8C5.15625 8.18984 5.31016 8.34375 5.5 8.34375H7.21875C7.40859 8.34375 7.5625 8.18984 7.5625 8C7.5625 7.81016 7.40859 7.65625 7.21875 7.65625Z" fill="white"/>
<path d="M4.125 7.65625H2.40625C2.21641 7.65625 2.0625 7.81016 2.0625 8C2.0625 8.18984 2.21641 8.34375 2.40625 8.34375H4.125C4.31484 8.34375 4.46875 8.18984 4.46875 8C4.46875 7.81016 4.31484 7.65625 4.125 7.65625Z" fill="white"/>
<path d="M13.4062 7.65625H11.6875C11.4977 7.65625 11.3438 7.81016 11.3438 8C11.3438 8.18984 11.4977 8.34375 11.6875 8.34375H13.4062C13.5961 8.34375 13.75 8.18984 13.75 8C13.75 7.81016 13.5961 7.65625 13.4062 7.65625Z" fill="white"/>
<path d="M10.3125 7.65625H8.59375C8.40391 7.65625 8.25 7.81016 8.25 8C8.25 8.18984 8.40391 8.34375 8.59375 8.34375H10.3125C10.5023 8.34375 10.6562 8.18984 10.6562 8C10.6562 7.81016 10.5023 7.65625 10.3125 7.65625Z" fill="white"/>
<path d="M3.78125 2.15625H2.75C2.18135 2.15625 1.71875 2.61889 1.71875 3.1875V3.53125C1.71875 4.09986 2.18135 4.5625 2.75 4.5625H3.78125C4.3499 4.5625 4.8125 4.09986 4.8125 3.53125V3.1875C4.8125 2.61889 4.3499 2.15625 3.78125 2.15625ZM4.125 3.53125C4.125 3.72079 3.97079 3.875 3.78125 3.875H2.75C2.56046 3.875 2.40625 3.72079 2.40625 3.53125V3.1875C2.40625 2.99796 2.56046 2.84375 2.75 2.84375H3.78125C3.97079 2.84375 4.125 2.99796 4.125 3.1875V3.53125Z" fill="white"/>
<path d="M12.7188 2.15625C12.3084 2.15625 11.9396 2.33719 11.6875 2.62323C11.4354 2.33719 11.0666 2.15625 10.6562 2.15625C9.89807 2.15625 9.28125 2.77307 9.28125 3.53125C9.28125 4.28943 9.89807 4.90625 10.6562 4.90625C11.0666 4.90625 11.4354 4.72531 11.6875 4.43927C11.9396 4.72531 12.3084 4.90625 12.7188 4.90625C13.4769 4.90625 14.0938 4.28943 14.0938 3.53125C14.0938 2.77307 13.4769 2.15625 12.7188 2.15625ZM10.6562 4.21875C10.2772 4.21875 9.96875 3.91032 9.96875 3.53125C9.96875 3.15218 10.2772 2.84375 10.6562 2.84375C11.0353 2.84375 11.3438 3.15218 11.3438 3.53125C11.3438 3.91032 11.0353 4.21875 10.6562 4.21875ZM12.7188 4.21875C12.3397 4.21875 12.0312 3.91032 12.0312 3.53125C12.0312 3.15218 12.3397 2.84375 12.7188 2.84375C13.0978 2.84375 13.4062 3.15218 13.4062 3.53125C13.4062 3.91032 13.0978 4.21875 12.7188 4.21875Z" fill="white"/>
<path d="M16.8438 7.3125H20.625C20.8148 7.3125 20.9688 7.15859 20.9688 6.96875C20.9688 6.77891 20.8148 6.625 20.625 6.625H16.8438C16.6539 6.625 16.5 6.77891 16.5 6.96875C16.5 7.15859 16.6539 7.3125 16.8438 7.3125Z" fill="white"/>
<path d="M19.5938 11.4375H13.0625C12.8727 11.4375 12.7188 11.5914 12.7188 11.7812C12.7188 11.9711 12.8727 12.125 13.0625 12.125H19.5938C19.7836 12.125 19.9375 11.9711 19.9375 11.7812C19.9375 11.5914 19.7836 11.4375 19.5938 11.4375Z" fill="white"/>
<path d="M19.5938 12.8125H15.4688C15.2789 12.8125 15.125 12.9664 15.125 13.1562C15.125 13.3461 15.2789 13.5 15.4688 13.5H19.5938C19.7836 13.5 19.9375 13.3461 19.9375 13.1562C19.9375 12.9664 19.7836 12.8125 19.5938 12.8125Z" fill="white"/>
</svg>
