<svg width="18" height="20" viewBox="0 0 18 20" fill="none" xmlns="http://www.w3.org/2000/svg">
<g clip-path="url(#clip0_303_63)">
<path d="M17.1826 10.0839V7.27291C17.1826 6.31975 16.5172 5.54457 15.6764 5.46941L13.327 0.909819C13.1093 0.488121 12.7577 0.18672 12.3371 0.0615653C11.9184 -0.0627367 11.4805 0.00254638 11.1058 0.244886L3.05185 5.45475H1.63733C0.734874 5.45475 0.000976562 6.27015 0.000976562 7.27291V18.1818C0.000976562 19.1846 0.734835 20 1.63733 20H15.5462C16.4487 20 17.1826 19.1846 17.1826 18.1818V15.3709C17.6577 15.1826 18.0007 14.6828 18.0007 14.091V11.3638C18.0007 10.7719 17.6577 10.2721 17.1826 10.0839ZM11.5177 1.03054C11.703 0.910245 11.9192 0.878285 12.1253 0.939563C12.3343 1.00169 12.5084 1.15173 12.6167 1.36169L13.4139 2.90875C13.0503 3.08832 12.6622 3.18207 12.2735 3.18207C11.3949 3.18207 10.5899 2.73902 10.0495 1.98026L11.5177 1.03054ZM9.3388 2.43996C10.0327 3.47942 11.101 4.09117 12.2735 4.09117C12.8043 4.09117 13.3306 3.95213 13.8195 3.69607L14.7257 5.45479H4.67796L9.3388 2.43996ZM16.3644 18.1818C16.3644 18.683 15.9972 19.0909 15.5462 19.0909H1.63733C1.18631 19.0909 0.819171 18.683 0.819171 18.1818V7.27291C0.819171 6.77179 1.18631 6.36385 1.63733 6.36385H15.5462C15.9972 6.36385 16.3644 6.77179 16.3644 7.27291V10.0001H13.9099C12.5563 10.0001 11.4553 11.2235 11.4553 12.7274C11.4553 14.2313 12.5563 15.4546 13.9099 15.4546H16.3644V18.1818V18.1818ZM17.1826 14.091C17.1826 14.3418 16.9992 14.5455 16.7735 14.5455H13.9099C13.0074 14.5455 12.2735 13.7301 12.2735 12.7274C12.2735 11.7246 13.0074 10.9092 13.9099 10.9092H16.7735C16.9992 10.9092 17.1826 11.1129 17.1826 11.3638V14.091V14.091Z" fill="white"/>
<path d="M13.909 11.8183C13.458 11.8183 13.0908 12.2262 13.0908 12.7273C13.0908 13.2285 13.458 13.6364 13.909 13.6364C14.36 13.6364 14.7271 13.2285 14.7271 12.7273C14.7272 12.2262 14.36 11.8183 13.909 11.8183Z" fill="white"/>
</g>
<defs>
<clipPath id="clip0_303_63">
<rect width="18" height="20" fill="white"/>
</clipPath>
</defs>
</svg>
