<svg width="18" height="19" viewBox="0 0 18 19" fill="none" xmlns="http://www.w3.org/2000/svg">
<path d="M0.603457 4.3024C0.596552 4.33993 0.592661 4.37797 0.591405 4.41601V5.1974C0.59241 5.51941 0.7924 5.80729 1.09408 5.9204V7.07013C1.09546 7.45504 1.39815 7.77141 1.78256 7.78962V14.4317C1.39815 14.4501 1.09546 14.7664 1.09408 15.1512V16.2976C0.791773 16.4137 0.591907 16.7037 0.591405 17.0274V17.7917C0.591405 17.9342 0.707156 18.0498 0.849648 18.0498H18.2615C18.404 18.0498 18.5196 17.9342 18.5196 17.7917V17.0274C18.5191 16.7036 18.3193 16.4136 18.0171 16.2976V15.1445C18.0157 14.7595 17.7129 14.4432 17.3286 14.425V7.78962C17.7129 7.77141 18.0157 7.45504 18.0171 7.07013V5.9204C18.3186 5.80729 18.5186 5.51941 18.5196 5.1974V4.42116C18.5185 4.38312 18.5145 4.34508 18.5076 4.30754C18.6374 4.36504 18.7892 4.30654 18.8467 4.17673C18.9042 4.04704 18.8457 3.89526 18.716 3.83763L9.67435 -0.914564C9.5989 -0.954362 9.50876 -0.954362 9.43331 -0.914564L0.391791 3.83249C0.26562 3.89915 0.217286 4.0552 0.283698 4.18137C0.344461 4.29662 0.481555 4.3486 0.603457 4.3024ZM1.61044 6.36784V5.97024H4.58808V6.36445L1.61044 6.36784ZM8.24052 7.79138V14.4317C7.85611 14.4501 7.55342 14.7664 7.55204 15.1512V16.2494H5.10093V15.1512C5.09955 14.7664 4.79686 14.4501 4.41245 14.4317V7.78962C4.79686 7.77141 5.09955 7.45504 5.10093 7.07013V5.97024H7.54852V7.0685C7.54915 7.45404 7.85209 7.77116 8.23713 7.78962L8.24052 7.79138ZM8.0684 6.36784V5.97024H11.0462V6.36445L8.0684 6.36784ZM14.6986 7.79138V14.4317C14.3142 14.4501 14.0114 14.7664 14.01 15.1512V16.2494H11.559V15.1512C11.5576 14.7664 11.2548 14.4501 10.8705 14.4317V7.78962C11.2548 7.77141 11.5576 7.45504 11.559 7.07013V5.97024H14.0066V7.0685C14.0071 7.45404 14.31 7.77116 14.6951 7.78962L14.6986 7.79138ZM14.5265 6.36784V5.97024H17.5041V6.36445L14.5265 6.36784ZM17.5041 15.8553V16.2494H14.523V15.8553H17.5041ZM11.0462 15.8553V16.2494H8.06501V15.8553H11.0462ZM8.49525 7.2784H8.27153C8.15741 7.2784 8.06501 7.186 8.06501 7.07189V6.8842H11.0426V7.07189C11.0426 7.186 10.9502 7.2784 10.8361 7.2784H8.49525ZM10.3559 7.79477V14.4284H8.75349V7.79477H10.3559ZM8.49525 14.9447H10.8361C10.9502 14.9447 11.0426 15.0371 11.0426 15.1512V15.3389H8.06501V15.1512C8.06501 15.0371 8.15741 14.9447 8.27153 14.9447H8.49525ZM4.58469 15.8553V16.2494H1.60693V15.8553H4.58469ZM1.60693 7.07703V6.8842H4.58469V7.07189C4.58469 7.186 4.49229 7.2784 4.37805 7.2784H1.8083C1.69556 7.27564 1.60592 7.18287 1.60693 7.07013V7.07703ZM3.89621 7.79991V14.4284H2.29541V7.79477L3.89621 7.79991ZM1.60693 15.1565C1.60693 15.0423 1.69933 14.9499 1.81345 14.9499H4.37805C4.49229 14.9499 4.58469 15.0423 4.58469 15.1565V15.3441H1.60693V15.1565ZM18.0033 17.0378V17.5437H1.10438V17.0378C1.10438 16.8904 1.22377 16.7709 1.37116 16.7709H17.7365C17.8818 16.7709 18.0005 16.8873 18.0033 17.0325V17.0378ZM17.5007 15.1565V15.3441H14.523V15.1565C14.523 15.0423 14.6154 14.9499 14.7295 14.9499H17.2994C17.4095 14.9526 17.498 15.0411 17.5007 15.1512V15.1565ZM15.2114 14.4335V7.79477H16.8139V14.4284L15.2114 14.4335ZM17.5007 7.07703C17.5007 7.19115 17.4083 7.28355 17.2942 7.28355H14.7312C14.6171 7.28355 14.5247 7.19115 14.5247 7.07703V6.8842H17.5024L17.5007 7.07703ZM9.55383 -0.398204L17.2425 3.64317H1.86517L9.55383 -0.398204ZM1.10438 4.42116C1.10438 4.27867 1.22 4.16304 1.36249 4.16304H17.7452C17.8877 4.16304 18.0033 4.27867 18.0033 4.42116V5.20267C18.0033 5.34516 17.8877 5.46079 17.7452 5.46079H1.36249C1.22 5.46079 1.10438 5.34516 1.10438 5.20267V4.42116Z" fill="white"/>
</svg>
