<svg width="12" height="12" viewBox="0 0 12 12" fill="none" xmlns="http://www.w3.org/2000/svg">
<path d="M11.9757 9.29781C11.9418 9.19554 11.7258 9.04488 11.328 8.84619C11.2203 8.78357 11.0667 8.69846 10.868 8.59049C10.6692 8.48252 10.4887 8.38303 10.3268 8.2921C10.1647 8.20121 10.0128 8.11314 9.87084 8.02804C9.84815 8.01099 9.77714 7.96135 9.65782 7.87879C9.53839 7.79646 9.43767 7.73535 9.35513 7.6955C9.27277 7.65589 9.19176 7.63595 9.11221 7.63595C8.99859 7.63595 8.85668 7.71696 8.68629 7.87879C8.5159 8.04082 8.35961 8.21682 8.21764 8.40733C8.07563 8.59774 7.92504 8.77375 7.76611 8.93569C7.60695 9.09769 7.47617 9.17861 7.37402 9.17861C7.32274 9.17861 7.25879 9.16432 7.18217 9.13611C7.10557 9.10772 7.0473 9.08339 7.0073 9.06378C6.96766 9.04375 6.89963 9.00411 6.80297 8.94425C6.70614 8.88458 6.65228 8.8519 6.64094 8.84619C5.86258 8.41428 5.19502 7.91995 4.63816 7.36332C4.08147 6.80636 3.58708 6.13887 3.15528 5.36041C3.14961 5.34904 3.11686 5.29504 3.05725 5.1985C2.99755 5.10188 2.95776 5.03379 2.93788 4.99391C2.918 4.95417 2.89385 4.89591 2.86549 4.81922C2.83713 4.74253 2.82289 4.67865 2.82289 4.62746C2.82289 4.52525 2.90388 4.3945 3.06582 4.23539C3.22773 4.07638 3.40391 3.92575 3.59418 3.78381C3.7846 3.64187 3.9606 3.48557 4.12257 3.31518C4.28448 3.1447 4.36544 3.00273 4.36544 2.88912C4.36544 2.80963 4.34556 2.72858 4.30583 2.64622C4.26606 2.56368 4.20499 2.46297 4.12257 2.34359C4.04012 2.22428 3.99042 2.15332 3.97335 2.13049C3.88821 1.98855 3.80024 1.83658 3.70923 1.67464C3.61821 1.51272 3.51887 1.33225 3.41087 1.13341C3.30295 0.934661 3.21779 0.781198 3.15522 0.673257C2.95648 0.275613 2.80594 0.0596122 2.70364 0.0256419C2.66385 0.00859706 2.60415 0 2.52468 0C2.37119 0 2.17095 0.0283583 1.92381 0.0852542C1.67659 0.14206 1.48205 0.201643 1.33999 0.26424C1.0559 0.383494 0.754793 0.730063 0.436582 1.30383C0.14682 1.8378 0.00195312 2.36631 0.00195312 2.88897C0.00195312 3.04225 0.0118935 3.19139 0.0317742 3.3364C0.0516549 3.48127 0.0871774 3.64465 0.138372 3.8265C0.189476 4.00829 0.230701 4.14333 0.261865 4.23127C0.293059 4.31928 0.351298 4.47692 0.436552 4.70426C0.521687 4.93155 0.572881 5.07068 0.589926 5.12182C0.788763 5.67866 1.02456 6.17576 1.29724 6.61329C1.7459 7.34051 2.35817 8.09207 3.1337 8.86766C3.90926 9.64318 4.66066 10.2554 5.38795 10.7043C5.82541 10.9769 6.3227 11.2127 6.87945 11.4117C6.93061 11.4286 7.06975 11.4797 7.29694 11.5651C7.52423 11.6503 7.68193 11.7086 7.76993 11.7398C7.85796 11.7711 7.99304 11.8124 8.17468 11.8636C8.35671 11.9147 8.51993 11.9503 8.6648 11.9703C8.80976 11.9899 8.95892 12 9.11224 12C9.63487 12 10.1634 11.8551 10.6975 11.5653C11.2712 11.2473 11.6177 10.9461 11.737 10.6618C11.7997 10.5199 11.8591 10.3253 11.916 10.0781C11.9729 9.83095 12.0012 9.63074 12.0012 9.47727C12.0014 9.39748 11.9928 9.33793 11.9757 9.29781Z" fill="#337D5A"/>
</svg>
