<svg width="26" height="18" viewBox="0 0 26 18" fill="none" xmlns="http://www.w3.org/2000/svg">
<path d="M5.70732 6.56489C8.84538 6.56489 11.3893 9.10883 11.3893 12.2468C11.3893 15.3848 8.84538 17.9288 5.70732 17.9288C2.56926 17.9288 0.0253659 15.3848 0.0253659 12.2468L0 11.4351C0 5.15901 5.08778 0.071228 11.3639 0.071228V3.31806C9.19578 3.31806 7.15738 4.16239 5.62427 5.6955C5.32916 5.99066 5.05983 6.30468 4.81687 6.63454C5.10701 6.58888 5.40435 6.56489 5.70732 6.56489ZM20.318 6.56489C23.4561 6.56489 26 9.10883 26 12.2468C26 15.3848 23.4561 17.9288 20.318 17.9288C17.18 17.9288 14.6361 15.3848 14.6361 12.2468L14.6107 11.4351C14.6107 5.15901 19.6985 0.071228 25.9746 0.071228V3.31806C23.8066 3.31806 21.7681 4.16239 20.235 5.6955C19.9398 5.99066 19.6705 6.30468 19.4276 6.63454C19.7177 6.58888 20.015 6.56489 20.318 6.56489Z" fill="#337D5A"/>
</svg>
