<svg width="28" height="28" viewBox="0 0 28 28" fill="none" xmlns="http://www.w3.org/2000/svg">
<circle cx="14" cy="14" r="14" fill="#93B474"/>
<g clip-path="url(#clip0_201_677)">
<path d="M14.1025 18.2978C13.1702 18.2978 12.4146 17.5424 12.4146 16.6099V7.68796C12.4146 6.7558 13.1703 6 14.1025 6C15.0345 6 15.7905 6.7558 15.7905 7.68796V16.6099C15.7906 17.5424 15.0348 18.2978 14.1025 18.2978Z" fill="white"/>
<path d="M13.9942 23C14.7932 23 15.441 22.3522 15.441 21.5532C15.441 20.7541 14.7932 20.1064 13.9942 20.1064C13.1951 20.1064 12.5474 20.7541 12.5474 21.5532C12.5474 22.3522 13.1951 23 13.9942 23Z" fill="white"/>
</g>
<defs>
<clipPath id="clip0_201_677">
<rect width="21" height="21" fill="white" transform="translate(4 2)"/>
</clipPath>
</defs>
</svg>
