<svg width="19" height="19" viewBox="0 0 19 19" fill="none" xmlns="http://www.w3.org/2000/svg">
<path d="M18.3691 17.3004L13.9977 12.9289C15.0813 11.6078 15.7344 9.91563 15.7344 8.07129C15.7344 3.84082 12.3018 0.408203 8.07129 0.408203C3.83711 0.408203 0.408203 3.84082 0.408203 8.07129C0.408203 12.3018 3.83711 15.7344 8.07129 15.7344C9.91563 15.7344 11.6041 15.085 12.9252 14.0014L17.2967 18.3691C17.5936 18.666 18.0723 18.666 18.3691 18.3691C18.666 18.076 18.666 17.5936 18.3691 17.3004ZM8.07129 14.2092C4.6832 14.2092 1.92969 11.4557 1.92969 8.07129C1.92969 4.68691 4.6832 1.92969 8.07129 1.92969C11.4557 1.92969 14.2129 4.68691 14.2129 8.07129C14.2129 11.4557 11.4557 14.2092 8.07129 14.2092Z" fill="white"/>
</svg>
