<svg display='none' xmlns='http://www.w3.org/2000/svg'>
   <symbol id='facebook' viewBox='0 0 7 13'>
      <path
      d="M0.426261 6.9238H1.85127V12.7903C1.85127 12.9061 1.94512 13 2.06095 13H4.4771C4.59293 13 4.68678 12.9061 4.68678 12.7903V6.95144H6.32495C6.43146 6.95144 6.52108 6.87151 6.53324 6.7657L6.78204 4.60594C6.78888 4.54652 6.77005 4.48701 6.7303 4.44244C6.6905 4.39782 6.63355 4.37228 6.57379 4.37228H4.68686V3.01843C4.68686 2.61032 4.90661 2.40336 5.34005 2.40336C5.40182 2.40336 6.57379 2.40336 6.57379 2.40336C6.68962 2.40336 6.78347 2.30947 6.78347 2.19369V0.211229C6.78347 0.0954032 6.68962 0.00155161 6.57379 0.00155161H4.87352C4.86153 0.000964516 4.8349 0 4.79564 0C4.50063 0 3.47518 0.0579128 2.66515 0.803106C1.76765 1.6289 1.89241 2.61766 1.92222 2.78909V4.37224H0.426261C0.310435 4.37224 0.216583 4.46609 0.216583 4.58191V6.71408C0.216583 6.82991 0.310435 6.9238 0.426261 6.9238Z"/>
   </symbol>

   <symbol id='instagram' viewBox='0 0 13 13'>
      <path
         d="M9.48744 0H3.51256C1.57574 0 0 1.57574 0 3.51256V9.48744C0 11.4243 1.57574 13 3.51256 13H9.48744C11.4243 13 13 11.4243 13 9.48744V3.51256C13 1.57574 11.4243 0 9.48744 0ZM11.9497 9.48744C11.9497 10.8451 10.8452 11.9497 9.48744 11.9497H3.51256C2.15485 11.9497 1.05026 10.8452 1.05026 9.48744V3.51256C1.05026 2.15485 2.15483 1.05026 3.51256 1.05026H9.48744C10.8451 1.05026 11.9497 2.15483 11.9497 3.51256V9.48744Z"/>
      <path
         d="M9.40942 6.04654C9.317 5.42327 9.03265 4.85838 8.58712 4.41285C8.14159 3.96735 7.5767 3.68297 6.95347 3.59058C6.6697 3.5485 6.382 3.5485 6.09826 3.59058C5.32801 3.70481 4.64838 4.11212 4.18452 4.73752C3.72065 5.36292 3.52807 6.13154 3.6423 6.90174C3.75653 7.67197 4.16385 8.3516 4.78924 8.81548C5.29696 9.19205 5.89897 9.3898 6.51969 9.3898C6.66358 9.3898 6.80851 9.37918 6.95344 9.35768C7.72369 9.24344 8.40332 8.83613 8.86718 8.21073C9.33107 7.58536 9.52366 6.81676 9.40942 6.04654ZM6.79939 8.31877C6.30669 8.39194 5.815 8.26867 5.41492 7.97193C5.01484 7.67519 4.75428 7.2404 4.68123 6.7477C4.60816 6.25499 4.73133 5.7633 5.02807 5.36322C5.32483 4.96314 5.7596 4.70258 6.25233 4.62951C6.34307 4.61605 6.43446 4.60932 6.52584 4.60932C6.61722 4.60932 6.70862 4.61605 6.79937 4.62953C7.61773 4.75088 8.24912 5.38224 8.37049 6.20063C8.52131 7.21773 7.81654 8.16795 6.79939 8.31877Z"/>
      <path
         d="M10.1575 2.84248C10.0597 2.7447 9.92435 2.68866 9.78617 2.68866C9.648 2.68866 9.51264 2.74467 9.41483 2.84248C9.31705 2.94028 9.26102 3.07541 9.26102 3.21381C9.26102 3.35222 9.31705 3.48735 9.41483 3.58515C9.51264 3.68293 9.648 3.73897 9.78617 3.73897C9.92435 3.73897 10.0597 3.68296 10.1575 3.58515C10.2553 3.48735 10.3113 3.35199 10.3113 3.21381C10.3113 3.07561 10.2553 2.94026 10.1575 2.84248Z"/>
   </symbol>

   <symbol id='youtube' viewBox='0 0 16 12'>
      <path d="M15.3764 10.6635C14.7988 11.35 13.7325 11.6301 11.6961 11.6301H4.30379C2.22075 11.6301 1.13636 11.3319 0.560981 10.601C0 9.88834 0 8.83827 0 7.38496V4.61494C0 1.79941 0.6656 0.369884 4.30379 0.369884H11.6961C13.4621 0.369884 14.4407 0.617007 15.0738 1.22289C15.723 1.84421 16 2.85866 16 4.61494V7.38496C16 8.9176 15.9566 9.97386 15.3764 10.6635ZM10.2721 5.61752L6.91525 3.86315C6.84021 3.82392 6.75814 3.80447 6.67618 3.80447C6.58338 3.80447 6.49079 3.82945 6.40877 3.8791C6.25435 3.97267 6.16005 4.14005 6.16005 4.32059V7.81809C6.16005 7.99832 6.25409 8.16555 6.40821 8.25918C6.56237 8.3528 6.75412 8.3592 6.91406 8.2761L10.2709 6.53303C10.4417 6.44436 10.5489 6.26805 10.5492 6.07569C10.5494 5.88318 10.4426 5.70661 10.2721 5.61752Z"/>
   </symbol>

   <symbol id='user' viewBox='0 0 9 11'>
      <path d="M4.50001 5.37972C5.72303 5.37972 6.71457 4.17544 6.71457 2.68988C6.71457 1.20428 6.38903 0 4.50001 0C2.611 0 2.2854 1.20428 2.2854 2.68988C2.2854 4.17544 3.27694 5.37972 4.50001 5.37972Z"/>
      <path d="M0.317086 9.4868C0.316331 9.46128 0.316709 9.39622 0.317086 9.4868V9.4868Z"/>
      <path d="M8.68262 9.55756C8.68303 9.38552 8.68381 9.53276 8.68262 9.55756V9.55756Z"/>
      <path d="M8.67799 9.3782C8.63698 6.79031 8.29899 6.0529 5.71264 5.58612C5.71264 5.58612 5.34857 6.05004 4.5 6.05004C3.65143 6.05004 3.2873 5.58612 3.2873 5.58612C0.729167 6.04781 0.37063 6.77428 0.323487 9.29412C0.319622 9.49989 0.31783 9.5107 0.317139 9.48681C0.317296 9.53157 0.317484 9.61435 0.317484 9.7587C0.317484 9.7587 0.933233 11 4.5 11C8.0667 11 8.68252 9.7587 8.68252 9.7587C8.68252 9.66596 8.68258 9.60147 8.68267 9.55759C8.68198 9.57236 8.6806 9.54373 8.67799 9.3782Z"/>
   </symbol>

   <symbol id='lang-arrow' viewBox='0 0 8 5'>
      <path fill-rule="evenodd" clip-rule="evenodd" d="M3.99485 3.07389L0.978121 0.2L0 1.20892L3.99485 5L8 1.20892L7.02188 0.2L3.99485 3.07389Z"/>
   </symbol>

   <symbol id='viber' viewBox='0 0 16 17'>
      <path d="M4.15384 16.9996C3.96421 16.9997 3.81048 16.8454 3.81048 16.6558V16.6558C3.81048 15.7905 3.80889 14.9236 3.81207 14.0583C3.81207 13.9598 3.77873 13.9028 3.68667 13.8705C3.51048 13.8073 3.33588 13.7381 3.15651 13.6811C2.09143 13.3454 1.3581 12.6464 0.843814 11.7072C0.562862 11.1914 0.39302 10.6386 0.262862 10.072C0.0517506 9.15432 -0.0212653 8.22434 0.00413152 7.28511C0.0215918 6.67846 0.0723855 6.07489 0.166036 5.47594C0.239052 5.00325 0.305719 4.52748 0.415243 4.06094C0.672385 2.97082 1.28508 2.10089 2.20889 1.43727C2.77556 1.03078 3.40572 0.745936 4.07239 0.533455C4.61683 0.359467 5.17715 0.245528 5.74381 0.159304C6.55175 0.0361267 7.36445 -0.0208428 8.18032 0.00533242C8.67873 0.0222693 9.17873 0.0576828 9.67556 0.105414C10.3819 0.173161 11.0819 0.284021 11.7692 0.461088C12.4279 0.630457 13.0549 0.873732 13.6311 1.23095C14.6327 1.84991 15.2549 2.73217 15.5597 3.83768C15.7517 4.53364 15.8787 5.24191 15.9438 5.95941C16.0137 6.72773 16.0152 7.49605 15.9676 8.26591C15.939 8.72166 15.9025 9.17588 15.8216 9.62548C15.6644 10.5016 15.3978 11.3407 14.9375 12.1137C14.5898 12.6957 14.093 13.1376 13.493 13.4717C12.9692 13.7627 12.4041 13.949 11.8184 14.0768C11.3549 14.1784 10.8867 14.2385 10.4137 14.2754C9.34857 14.3555 8.2835 14.3878 7.21524 14.4155C7.18032 14.4171 7.13429 14.4309 7.11207 14.4556C6.4708 15.1361 5.78508 15.7751 5.10731 16.4202C4.91683 16.6019 4.72477 16.7836 4.52953 16.9622C4.50731 16.9838 4.46921 16.9976 4.43746 16.9976C4.34317 16.999 4.24888 16.9995 4.15384 16.9996ZM4.5722 15.8052C4.57017 15.8332 4.6058 15.8497 4.62477 15.829V15.829C4.85175 15.6134 5.08191 15.4025 5.30572 15.1823C5.71683 14.7789 6.12477 14.3724 6.52953 13.9613C6.71207 13.7766 6.93111 13.6826 7.18984 13.6734C7.9454 13.6441 8.70096 13.621 9.45492 13.5918C10.0756 13.5671 10.6946 13.524 11.3073 13.4193C11.9041 13.3177 12.4803 13.1576 13.0184 12.882C13.6184 12.5756 14.0851 12.1383 14.3898 11.5486C14.7486 10.8542 14.9756 10.1182 15.0946 9.34987C15.1867 8.75092 15.2216 8.14735 15.2343 7.54378C15.2533 6.71541 15.2025 5.89013 15.0581 5.07254C14.9787 4.62448 14.8819 4.18104 14.7359 3.74992C14.4978 3.04473 14.0835 2.45964 13.4644 2.0162C12.9692 1.66207 12.4168 1.42033 11.8311 1.24634C11.3406 1.10161 10.8391 1.00769 10.3343 0.932241C9.81207 0.855256 9.28826 0.795207 8.76286 0.764412C8.01365 0.719761 7.26445 0.727459 6.51683 0.805985C5.93429 0.866034 5.3581 0.953797 4.79143 1.09699C4.09778 1.27098 3.44064 1.52503 2.83746 1.90534C1.95651 2.46118 1.38191 3.23104 1.1581 4.22877C1.05493 4.68761 0.988258 5.15568 0.915242 5.62068C0.827941 6.18883 0.780322 6.76007 0.766036 7.33284C0.746989 8.02879 0.788258 8.72166 0.907306 9.40838C0.991433 9.89031 1.10413 10.3661 1.27556 10.8265C1.47715 11.3638 1.75969 11.8534 2.1835 12.2584C2.48032 12.5417 2.81207 12.7727 3.21365 12.902C3.45334 12.979 3.68826 13.0729 3.92477 13.1637C4.09778 13.23 4.2581 13.3177 4.37873 13.4609C4.52477 13.6334 4.57238 13.8351 4.57238 14.0537C4.57238 14.6373 4.57238 15.2193 4.57238 15.8028C4.57232 15.8036 4.57226 15.8044 4.5722 15.8052Z"/>
      <path d="M10.4191 12.1946C10.2746 12.193 10.0968 12.1499 9.92541 12.0791C8.71906 11.5833 7.60001 10.9459 6.59525 10.1267C5.63334 9.34302 4.83017 8.42688 4.16667 7.39219C3.77937 6.79017 3.48414 6.1481 3.22858 5.48603C3.17937 5.35977 3.11271 5.23813 3.08731 5.10726C2.96826 4.49137 3.20318 4.01252 3.71271 3.64915C3.93652 3.49055 4.19048 3.39201 4.46191 3.33812C4.72223 3.28577 4.94287 3.37354 5.13017 3.54444C5.50001 3.8801 5.81906 4.25733 6.08414 4.67614C6.20794 4.87014 6.32064 5.07184 6.42699 5.27509C6.58572 5.57841 6.53017 5.83554 6.26667 6.06188C6.16667 6.14657 6.06033 6.22509 5.95874 6.30824C5.61112 6.59616 5.53175 6.88255 5.70001 7.29519C5.9508 7.91416 6.34287 8.43612 6.8635 8.86878C7.26191 9.19982 7.70953 9.4508 8.19366 9.64172C8.53652 9.77722 8.83493 9.6525 9.04445 9.36149C9.14128 9.226 9.24128 9.09666 9.38255 9.00274C9.64287 8.83029 9.92064 8.83029 10.2064 8.92883C10.3984 8.99504 10.5683 9.10282 10.7302 9.21984C11.1032 9.48929 11.481 9.75566 11.8492 10.0313C12.0206 10.1591 12.1492 10.3223 12.1825 10.5394C12.2048 10.6949 12.1651 10.8412 12.1032 10.9828C11.8873 11.4663 11.5254 11.8143 11.0381 12.0406C10.7889 12.1622 10.654 12.1946 10.4191 12.1946Z"/>
      <path d="M8.46349 2.58521C9.62063 2.59136 10.673 3.02864 11.5111 3.92322C12.0762 4.52833 12.4127 5.24275 12.5254 6.05265C12.5921 6.5238 12.5698 6.99341 12.4651 7.45841C12.4254 7.63547 12.3048 7.74787 12.1381 7.76173C11.9619 7.77559 11.7984 7.68628 11.7349 7.54155C11.7 7.45995 11.7048 7.3768 11.7222 7.29212C11.9238 6.32825 11.7444 5.4383 11.1413 4.64535C10.5889 3.92014 9.83968 3.49364 8.91905 3.35968C8.5 3.29809 8.08571 3.32427 7.67143 3.41049C7.46825 3.45207 7.28571 3.33043 7.24127 3.1318C7.19365 2.92702 7.30159 2.7438 7.50476 2.69452C7.79048 2.6237 8.08095 2.59444 8.46349 2.58521Z"/>
      <path d="M11.4 6.20355C11.4403 6.48035 11.4295 6.76322 11.3917 7.04038C11.3884 7.06474 11.3848 7.08915 11.381 7.11352C11.3492 7.31368 11.1778 7.42762 10.9587 7.40299C10.7556 7.37989 10.6159 7.22284 10.6302 7.02576C10.6397 6.89026 10.6651 6.75477 10.6667 6.61773C10.6778 5.65387 10.0397 4.80857 9.08889 4.52834C8.75397 4.4298 8.41111 4.4067 8.06508 4.46521C7.70952 4.5268 7.55079 4.21578 7.62064 3.98328C7.66191 3.84932 7.75873 3.76618 7.89841 3.74308C8.9381 3.57987 9.8381 3.85702 10.581 4.58069C11.0413 5.02875 11.3095 5.57688 11.4 6.20355V6.20355Z"/>
      <path d="M8.4127 4.80547C9.33651 4.81779 10.1381 5.50296 10.2619 6.3806C10.2778 6.49608 10.2889 6.61618 10.2746 6.73012C10.2492 6.9272 10.0794 7.0396 9.86032 7.02266C9.66826 7.0088 9.52699 6.86561 9.52381 6.67469C9.52222 6.44373 9.46667 6.22817 9.33175 6.03724C9.10159 5.71236 8.78095 5.55069 8.3746 5.54299C8.21111 5.53992 8.08413 5.47525 8.02381 5.32435C7.96349 5.17192 7.98413 5.02873 8.10159 4.90709C8.19048 4.81933 8.30159 4.79931 8.4127 4.80547Z"/>
   </symbol>

   <symbol id='telegram' viewBox='0 0 14 14'>
      <path d="M11.2704 13.2613C11.161 13.2613 11.0524 13.229 10.9592 13.1658L7.43908 10.778L5.55107 12.1365C5.40299 12.243 5.21214 12.2698 5.0402 12.2083C4.86848 12.1467 4.73807 12.0045 4.69152 11.8281L3.74352 8.23548L0.356217 6.94027C0.142973 6.8587 0.00154931 6.65469 -2.36459e-06 6.42637C-0.00155404 6.19806 0.137062 5.99213 0.349272 5.90767L13.229 0.782719C13.2875 0.757892 13.3493 0.743558 13.4117 0.739715C13.434 0.738385 13.4564 0.738385 13.4786 0.739642C13.6078 0.747326 13.7347 0.799935 13.8337 0.897025C13.8439 0.907074 13.8537 0.917345 13.8629 0.928059C13.9449 1.02175 13.99 1.13598 13.9985 1.25236C14.0006 1.28162 14.0004 1.31125 13.9979 1.34088C13.9961 1.36201 13.9931 1.38307 13.9888 1.40398L11.8147 12.8109C11.7798 12.9942 11.6551 13.1476 11.4827 13.219C11.4144 13.2474 11.3422 13.2613 11.2704 13.2613ZM7.74816 9.64838L10.8838 11.7753L12.5754 2.89942L6.46574 8.77849L7.73338 9.63841C7.73848 9.64159 7.74336 9.64498 7.74816 9.64838ZM5.13788 9.17542L5.55772 10.7663L6.46227 10.1154L5.27783 9.31189C5.22278 9.27465 5.17564 9.22825 5.13788 9.17542ZM2.07894 6.41226L4.40483 7.30152C4.57145 7.36521 4.6972 7.5053 4.74272 7.67776L5.03769 8.79563C5.05121 8.66669 5.10965 8.54537 5.2046 8.45397L11.0263 2.85213L2.07894 6.41226Z"/>
   </symbol>

   <symbol id='whatsapp' viewBox='0 0 15 15'>
      <path d="M15 7.30704C15 11.3423 11.7033 14.6136 7.63573 14.6136C6.34493 14.6136 5.13239 14.2834 4.07686 13.7053L0 15L1.32895 11.0787C0.658852 9.97815 0.272932 8.68588 0.272932 7.30655C0.273421 3.27127 3.56915 0 7.63671 0C11.7038 0.00097825 15 3.27176 15 7.30704ZM7.63524 1.1651C4.22164 1.1651 1.44488 3.92083 1.44488 7.30851C1.44488 8.65262 1.88313 9.89696 2.62416 10.9094L1.85134 13.1902L4.22947 12.4345C5.20772 13.0763 6.37819 13.45 7.63524 13.45C11.0488 13.45 13.8266 10.6947 13.8266 7.30704C13.8276 3.92083 11.0493 1.1651 7.63524 1.1651ZM11.3546 8.99012C11.3086 8.91626 11.1882 8.87126 11.0083 8.78126C10.8287 8.69126 9.94 8.25839 9.77517 8.19969C9.60886 8.13953 9.48854 8.10921 9.36821 8.28871C9.24936 8.46822 8.90306 8.87126 8.79692 8.99159C8.69175 9.11142 8.58659 9.12659 8.40611 9.03805C8.22562 8.94708 7.64356 8.75925 6.95389 8.14931C6.41732 7.67388 6.05488 7.0884 5.95021 6.90889C5.84407 6.72987 5.93945 6.63303 6.02896 6.544C6.10966 6.4633 6.20944 6.33466 6.29993 6.2295C6.39042 6.12531 6.42026 6.05146 6.48042 5.93162C6.5396 5.81178 6.50977 5.7076 6.46526 5.61711C6.42026 5.52711 6.05977 4.64669 5.90863 4.28816C5.75847 3.93012 5.60831 3.9893 5.50266 3.9893C5.3975 3.9893 5.27717 3.97463 5.15685 3.97463C5.03652 3.97463 4.84087 4.01816 4.67604 4.19767C4.5112 4.37718 4.04458 4.81006 4.04458 5.69146C4.04458 6.57384 4.69071 7.42443 4.7812 7.54378C4.87218 7.66263 6.03042 9.5306 7.86513 10.2477C9.70082 10.9642 9.70082 10.725 10.0315 10.6947C10.3631 10.6644 11.0997 10.2618 11.2494 9.84413C11.4 9.42446 11.4 9.06496 11.3546 8.99012Z"/>
   </symbol>

   <symbol id='basket' viewBox='0 0 29 24'>
      <path d="M22.5738 23.255L21.2014 6.27062C21.1743 5.93557 20.8945 5.67742 20.5583 5.67742H16.8737V4.86065C16.8737 2.18047 14.722 0 12.0417 0H11.9566C9.27639 0 7.06727 2.18047 7.06727 4.86065V5.67742H3.44C3.10383 5.67742 2.824 5.93557 2.79691 6.27062L1.42056 23.3029C1.40602 23.4825 1.46727 23.6599 1.58942 23.7923C1.71157 23.9246 1.88362 24 2.06366 24H21.9346C21.9351 24 21.9358 24 21.9363 24C22.2927 24 22.5815 23.7112 22.5815 23.3548C22.5815 23.3209 22.5789 23.2875 22.5738 23.255ZM8.35759 4.86065C8.35759 2.89196 9.98787 1.29032 11.9566 1.29032H12.0417C14.0104 1.29032 15.5834 2.89196 15.5834 4.86065V5.67742H8.35759V4.86065V4.86065Z" fill="#337D5A"/>
      <circle cx="21.5" cy="7.5" r="7.5" fill="#93B474"/>
      <path d="M21.712 10.096C21.2533 10.096 20.8427 9.984 20.48 9.76C20.1173 9.53067 19.832 9.2 19.624 8.768C19.416 8.336 19.312 7.81333 19.312 7.2C19.312 6.58667 19.416 6.064 19.624 5.632C19.832 5.2 20.1173 4.872 20.48 4.648C20.8427 4.41867 21.2533 4.304 21.712 4.304C22.176 4.304 22.5867 4.41867 22.944 4.648C23.3067 4.872 23.592 5.2 23.8 5.632C24.008 6.064 24.112 6.58667 24.112 7.2C24.112 7.81333 24.008 8.336 23.8 8.768C23.592 9.2 23.3067 9.53067 22.944 9.76C22.5867 9.984 22.176 10.096 21.712 10.096ZM21.712 9C21.9307 9 22.12 8.93867 22.28 8.816C22.4453 8.69333 22.5733 8.49867 22.664 8.232C22.76 7.96533 22.808 7.62133 22.808 7.2C22.808 6.77867 22.76 6.43467 22.664 6.168C22.5733 5.90133 22.4453 5.70667 22.28 5.584C22.12 5.46133 21.9307 5.4 21.712 5.4C21.4987 5.4 21.3093 5.46133 21.144 5.584C20.984 5.70667 20.856 5.90133 20.76 6.168C20.6693 6.43467 20.624 6.77867 20.624 7.2C20.624 7.62133 20.6693 7.96533 20.76 8.232C20.856 8.49867 20.984 8.69333 21.144 8.816C21.3093 8.93867 21.4987 9 21.712 9Z" fill="white"/>
   </symbol>

   <symbol id='tel' viewBox='0 0 10 10'>
      <path d="M9.9799 7.74817C9.95162 7.66295 9.77167 7.5374 9.44017 7.37183C9.35037 7.31964 9.22241 7.24872 9.05684 7.15874C8.89112 7.06877 8.74069 6.98586 8.60584 6.91008C8.47072 6.83434 8.34412 6.76095 8.22584 6.69003C8.20693 6.67583 8.14775 6.63446 8.04833 6.56565C7.9488 6.49705 7.86487 6.44613 7.79609 6.41292C7.72745 6.37991 7.65994 6.36329 7.59365 6.36329C7.49897 6.36329 7.38071 6.4308 7.23872 6.56565C7.09673 6.70068 6.96648 6.84735 6.84817 7.0061C6.72984 7.16479 6.60434 7.31145 6.4719 7.4464C6.33926 7.58141 6.23028 7.64884 6.14516 7.64884C6.10242 7.64884 6.04914 7.63693 5.98528 7.61342C5.92145 7.58976 5.87289 7.56949 5.83956 7.55315C5.80652 7.53646 5.74983 7.50342 5.66929 7.45354C5.58859 7.40382 5.54371 7.37658 5.53426 7.37183C4.88562 7.0119 4.32933 6.59996 3.86527 6.1361C3.40136 5.67197 2.98937 5.11572 2.62954 4.46701C2.62482 4.45753 2.59753 4.41253 2.54785 4.33209C2.4981 4.25156 2.46494 4.19482 2.44837 4.16159C2.43181 4.12848 2.41168 4.07992 2.38805 4.01601C2.36442 3.95211 2.35255 3.89887 2.35255 3.85621C2.35255 3.77104 2.42004 3.66208 2.55499 3.5295C2.68992 3.39698 2.83673 3.27146 2.99529 3.15317C3.15397 3.03489 3.30064 2.90464 3.43562 2.76265C3.57054 2.62059 3.63801 2.50228 3.63801 2.4076C3.63801 2.34136 3.62144 2.27382 3.58833 2.20519C3.5552 2.1364 3.5043 2.05247 3.43562 1.95299C3.36691 1.85357 3.32549 1.79444 3.31126 1.77541C3.24032 1.65712 3.16701 1.53048 3.09116 1.39553C3.01532 1.2606 2.93253 1.1102 2.84253 0.944507C2.7526 0.778885 2.68163 0.650998 2.62949 0.561048C2.46387 0.229678 2.33842 0.0496769 2.25317 0.0213683C2.22001 0.00716422 2.17026 0 2.10404 0C1.97613 0 1.80927 0.023632 1.60332 0.0710451C1.3973 0.118384 1.23518 0.168036 1.1168 0.2202C0.880058 0.319579 0.629136 0.608386 0.363961 1.08652C0.122492 1.5315 0.00177002 1.97193 0.00177002 2.40747C0.00177002 2.53521 0.0100536 2.65949 0.0266209 2.78034C0.0431881 2.90106 0.0727903 3.0372 0.115452 3.18875C0.158039 3.34024 0.192393 3.45278 0.218363 3.52606C0.244358 3.5994 0.292891 3.73076 0.363936 3.92022C0.434882 4.10962 0.477544 4.22557 0.491748 4.26818C0.657445 4.73221 0.853938 5.14647 1.08118 5.51107C1.45506 6.11709 1.96529 6.74339 2.61156 7.38971C3.25786 8.03598 3.88403 8.54619 4.4901 8.92022C4.85465 9.14743 5.26906 9.3439 5.73302 9.50972C5.77565 9.52385 5.8916 9.56642 6.08093 9.63761C6.27033 9.7086 6.40175 9.75714 6.47508 9.78318C6.54844 9.80925 6.66101 9.84363 6.81238 9.88629C6.96407 9.92896 7.10009 9.95856 7.22081 9.97525C7.34161 9.99159 7.46591 10 7.59367 10C8.0292 10 8.46965 9.87923 8.9147 9.63778C9.39279 9.37271 9.68152 9.12174 9.78095 8.88482C9.83324 8.76656 9.88276 8.6044 9.9301 8.39838C9.97759 8.19245 10.0012 8.02561 10.0012 7.89773C10.0013 7.83123 9.99418 7.78161 9.9799 7.74817Z"/>
   </symbol>
   
   <symbol id='email' viewBox='0 0 16 13'>
      <path d="M1.76933 4.23974C1.95927 4.37363 2.53184 4.77131 3.48706 5.43255C4.4423 6.09379 5.17409 6.60294 5.68244 6.96C5.73829 6.99914 5.85695 7.08423 6.03847 7.21537C6.22002 7.34659 6.37087 7.45264 6.49091 7.53353C6.61103 7.61439 6.75625 7.7051 6.92671 7.80551C7.09711 7.90584 7.25774 7.98131 7.40856 8.03127C7.55941 8.08163 7.69905 8.10658 7.82751 8.10658H7.83594H7.84439C7.97285 8.10658 8.11255 8.0816 8.2634 8.03127C8.41417 7.98131 8.57494 7.90575 8.74519 7.80551C8.91553 7.70498 9.06075 7.61436 9.18088 7.53353C9.301 7.45264 9.45174 7.34659 9.63335 7.21537C9.81484 7.08411 9.93365 6.99914 9.9895 6.96C10.5033 6.60294 11.8106 5.69609 13.9109 4.23956C14.3187 3.95508 14.6594 3.61182 14.9331 3.21002C15.207 2.80839 15.3438 2.38705 15.3438 1.94625C15.3438 1.5779 15.211 1.26258 14.9456 1.00033C14.6803 0.738016 14.366 0.606934 14.003 0.606934H1.66875C1.23864 0.606934 0.907647 0.752001 0.675821 1.04213C0.444024 1.33233 0.328125 1.69505 0.328125 2.13028C0.328125 2.48184 0.481795 2.8628 0.78899 3.27293C1.09615 3.6831 1.42304 4.00539 1.76933 4.23974Z" fill="#337D5A"/>
      <path d="M14.5057 5.13543C12.6737 6.37416 11.2825 7.33686 10.333 8.02332C10.0146 8.2576 9.75629 8.44049 9.55792 8.57154C9.35955 8.70268 9.09574 8.83661 8.76609 8.97326C8.43656 9.11012 8.12945 9.17834 7.84451 9.17834H7.83597H7.82754C7.54265 9.17834 7.23537 9.11012 6.90584 8.97326C6.57631 8.83661 6.31232 8.70268 6.11401 8.57154C5.91576 8.44049 5.65737 8.2576 5.339 8.02332C4.58482 7.4709 3.19668 6.50815 1.17452 5.13543C0.856022 4.92352 0.573921 4.68062 0.328125 4.40723V11.0532C0.328125 11.4218 0.459344 11.7369 0.721928 11.9992C0.984453 12.2616 1.30013 12.3927 1.66884 12.3927H14.0032C14.3718 12.3927 14.6874 12.2616 14.95 11.9992C15.2126 11.7368 15.3438 11.4218 15.3438 11.0532V4.40723C15.1035 4.67496 14.8243 4.91786 14.5057 5.13543Z" fill="#337D5A"/>
   </symbol>

   <symbol id='home' viewBox='0 0 17 16'>
      <path d="M16.1442 7.81246C16.4345 7.49348 16.4065 7.00457 16.0816 6.72073L8.92349 0.463913C8.59859 0.180081 8.07769 0.186026 7.75962 0.477317L0.57723 7.05432C0.259166 7.34561 0.243555 7.8339 0.542667 8.14448L0.72274 8.33183C1.02149 8.64242 1.50438 8.67945 1.80062 8.41429L2.33739 7.93409V14.9643C2.33739 15.3956 2.68725 15.7448 3.11872 15.7448H5.91843C6.3499 15.7448 6.69976 15.3956 6.69976 14.9643V10.046H10.2708V14.9643C10.2646 15.3953 10.5733 15.7445 11.0048 15.7445H13.9718C14.4033 15.7445 14.7531 15.3953 14.7531 14.964V8.03308C14.7531 8.03308 14.9014 8.16284 15.0843 8.32343C15.2669 8.48371 15.6503 8.3552 15.9407 8.0359L16.1442 7.81246Z" fill="#337D5A"/>
   </symbol>

   <symbol id='wood' viewBox='0 0 16 15'>
      <path d="M14.926 5.0066C14.5392 4.77958 14.2607 4.42352 14.3095 4.07435C14.4817 2.84189 13.55 1.78926 12.0439 1.59719C11.7765 1.56304 11.5102 1.46997 11.2691 1.36528C10.8147 1.16784 10.3412 1.09514 9.85155 1.20585C9.58713 1.26569 9.42443 1.23898 9.21428 1.08474C8.01548 0.204781 6.1367 0.519272 5.54936 1.7136C5.38075 2.05662 5.1314 2.25683 4.74047 2.38733C4.65319 2.41649 4.55741 2.4494 4.4954 2.50324C4.30026 2.67266 4.1143 2.63086 3.87789 2.54934C2.35173 2.02232 0.708184 2.88951 0.644574 4.23055C0.635545 4.42209 0.537573 4.63005 0.410847 4.7952C-0.0428307 5.38698 -0.123051 5.98066 0.181497 6.59577C-0.0378073 7.03991 0.153452 7.59367 0.693637 7.9149C1.28637 8.2675 1.96989 8.0835 2.49371 7.7422C2.64198 7.73079 2.79287 7.70642 2.9469 7.6682C3.25483 7.59164 3.53285 7.5002 3.79249 7.60214C3.8336 7.6269 3.87586 7.64891 3.91872 7.66922C3.93019 7.67697 3.94162 7.68421 3.95306 7.69286C3.95457 7.69093 3.95583 7.68938 3.95734 7.68746C4.04283 7.72486 4.13149 7.7532 4.22229 7.77481C4.72601 9.21809 5.80885 10.4822 7.29584 11.3782C7.2052 12.261 6.91535 13.1265 6.37529 13.9746C5.77248 14.2734 5.03706 14.0573 4.40584 13.9156C3.84781 13.7903 3.30448 13.7442 2.74735 13.8883C2.63205 13.9181 2.57837 13.9921 2.5727 14.0686C2.57196 14.0708 2.57082 14.0725 2.57017 14.0747C2.52792 14.2219 2.48567 14.3691 2.44341 14.5162C2.40394 14.654 2.52629 14.7483 2.65893 14.7668C2.67967 14.7711 2.70167 14.774 2.72608 14.774H13.0367C13.1271 14.774 13.1914 14.7418 13.2313 14.6962C13.2907 14.6585 13.3301 14.6009 13.3301 14.5361V14.2303C13.3301 14.1398 13.2536 14.0623 13.1512 14.0364C13.1121 14.0097 13.0605 13.9925 12.9947 13.9925H9.87925C9.72448 13.8475 9.56691 13.7011 9.40422 13.5563C8.95156 13.1533 8.75189 12.7048 8.95535 12.1621C9.02602 11.9736 9.07693 11.7776 9.10633 11.582C9.19321 11.0023 9.27444 10.42 9.35682 9.82911C10.4025 9.74838 11.348 9.38692 12.0821 8.77363C12.3866 8.77303 12.66 8.69982 12.8879 8.57554L12.9794 8.55251C13.4762 8.87752 14.2425 8.91105 14.8214 8.73775C15.3578 8.57717 15.8217 8.1422 15.8379 7.664C15.8394 7.61923 15.8366 7.5749 15.8319 7.53095C16.2495 6.65906 15.8676 5.55935 14.926 5.0066ZM5.83169 7.63322C5.8376 7.63139 5.8425 7.62994 5.84839 7.62812C5.95641 7.59479 6.14465 7.63302 6.24185 7.69426C6.3789 7.78071 6.50852 7.8749 6.63528 7.97072C6.6378 7.97887 6.63793 7.98641 6.64107 7.99478C6.83458 8.51905 7.02812 9.04344 7.2216 9.56771C7.26776 9.83196 7.29716 10.0945 7.31313 10.3556C6.3119 9.68814 5.76416 8.6971 5.83169 7.63322ZM9.58793 9.14858C9.6332 9.06068 9.67856 8.97284 9.72575 8.88536C9.74146 8.88536 9.75731 8.88536 9.77302 8.88526C9.77302 8.85498 9.77389 8.8246 9.77515 8.79414C9.90428 8.55938 10.0454 8.32981 10.2038 8.11044C10.4056 8.25468 10.6158 8.38425 10.8398 8.48994C10.4648 8.75864 10.0445 8.97926 9.58793 9.14858Z" fill="#337D5A"/>
   </symbol>

   <symbol id='video-btn' viewBox='0 0 12 17'>
      <path d="M11.2745 8.50007L0.5098 16.2688L0.5098 0.731311L11.2745 8.50007Z"/>
   </symbol>

   <symbol id='sticker' viewBox='0 0 82 32'>
      <path d="M4.13445 0.559814C4.13445 0.559814 0 1.40249 0 5.65591C0 9.90895 0 31.6729 0 31.6729C0 31.6729 0.459071 26.4316 4.13445 26.4316H82L74.0596 13.0347L82 0.559814H4.13445V0.559814Z"/>
   </symbol>

   <symbol id='balance' viewBox='0 0 16 18'>
      <path d="M15.9232 16.1065C15.793 15.6621 13.6732 7.72638 13.3848 6.64644C13.0976 5.56702 12.3466 5.27838 11.5007 5.27838C11.209 5.27838 10.084 5.27838 8.7431 5.27838V4.28109C13.872 3.80376 15.2399 0 15.2399 0H0.419873C0.419873 0 1.56685 4.01798 7.05123 4.30307V5.27782C5.80345 5.27782 4.77595 5.27782 4.49913 5.27782C3.65317 5.27782 2.90281 5.56645 2.61469 6.64592C2.32681 7.72586 0.207261 15.6615 0.0768185 16.106C-0.085773 16.663 -0.035232 17.3903 1.09823 17.3903C1.22323 17.3903 1.50667 17.3903 1.90764 17.3903V18H13.9533V17.3908C14.4235 17.3908 14.7624 17.3908 14.9004 17.3908C16.0353 17.3908 16.0858 16.6635 15.9232 16.1065ZM8.00017 6.30887C10.7772 6.30887 13.0272 8.55778 13.0272 11.3346C13.0272 14.1113 10.7772 16.3608 8.00017 16.3608C5.22419 16.3608 2.97415 14.1114 2.97415 11.3346C2.97415 8.55773 5.22415 6.30887 8.00017 6.30887Z" fill="#337D5A"/>
      <path d="M5.11459 9.12252L4.59878 8.75531L4.44635 8.96901L4.95474 9.3296C5.00197 9.25703 5.06045 9.19226 5.11459 9.12252Z" fill="#337D5A"/>
      <path d="M6.53315 7.99638L6.25193 7.42786L6.0163 7.54487L6.30299 8.12195C6.3802 8.08096 6.45325 8.03265 6.53315 7.99638Z" fill="#337D5A"/>
      <path d="M4.34997 11.3346C4.34997 11.3049 4.35848 11.2781 4.35957 11.249H3.7196V11.511H4.36808C4.3659 11.4511 4.34997 11.3951 4.34997 11.3346Z" fill="#337D5A"/>
      <path d="M11.9445 9.41088L11.8187 9.18176L11.1612 9.5416C11.203 9.6163 11.2475 9.69322 11.2859 9.77067L11.9445 9.41088Z" fill="#337D5A"/>
      <path d="M10.418 7.72094L10.1927 7.58582L9.82852 8.19226C9.90379 8.23675 9.9845 8.27216 10.0581 8.32109L10.418 7.72094Z" fill="#337D5A"/>
      <path d="M8.19651 7.70474V7.03125H7.9342V7.69098C7.95619 7.69098 7.97761 7.68493 7.99959 7.68493C8.06767 7.68493 8.13003 7.70114 8.19651 7.70474Z" fill="#337D5A"/>
      <path d="M10.1158 15.216L9.76542 14.5096C9.68958 14.553 9.61436 14.5997 9.53522 14.636L9.87964 15.3325L10.1158 15.216Z" fill="#337D5A"/>
      <path d="M11.6858 13.7911L11.0469 13.3374C10.9997 13.411 10.9403 13.4758 10.8876 13.5445L11.5331 14.0043L11.6858 13.7911Z" fill="#337D5A"/>
      <path d="M11.6507 11.3346C11.6507 11.3945 11.6363 11.4511 11.6336 11.5104H12.4136V11.2484H11.6429C11.6424 11.2786 11.6507 11.3049 11.6507 11.3346Z" fill="#337D5A"/>
      <path d="M7.9342 14.9782V15.7258H8.19651V14.9644C8.13003 14.9677 8.06767 14.9842 7.99959 14.9842C7.97761 14.9842 7.95619 14.9782 7.9342 14.9782Z" fill="#337D5A"/>
      <path d="M4.78143 13.0198L4.18567 13.3439L4.31176 13.5736L4.9053 13.2506C4.86024 13.1753 4.82152 13.0979 4.78143 13.0198Z" fill="#337D5A"/>
      <path d="M6.31154 14.552C6.23325 14.5107 6.15496 14.4712 6.08026 14.4261L5.71356 15.0359L5.93851 15.171L6.31154 14.552Z" fill="#337D5A"/>
      <path d="M6.46124 13.89L6.66312 14.0043L7.92764 11.8889C7.97926 11.9004 8.02711 11.9202 8.08176 11.9202C8.52609 11.9202 8.88541 11.5604 8.88541 11.1171C8.88541 10.6732 8.52609 10.3135 8.08176 10.3135C7.639 10.3135 7.27893 10.6732 7.27893 11.1171C7.27893 11.3709 7.40393 11.5873 7.58794 11.7356L6.46124 13.89ZM8.08224 10.8874C8.21055 10.8874 8.31296 10.9908 8.31296 11.1171C8.31296 11.244 8.20998 11.3477 8.08224 11.3477C7.95511 11.3477 7.85317 11.244 7.85317 11.1171C7.85317 10.9907 7.95511 10.8874 8.08224 10.8874Z" fill="#337D5A"/>
   </symbol>

   <symbol id='package' viewBox='0 0 12 18'>
      <path d="M11.4292 3.64492H8.31671V2.38667C8.31671 1.07072 7.27835 0 6.0013 0C4.7245 0 3.68563 1.07072 3.68563 2.38667V3.64492H0.570591L0 17.0948H12L11.4292 3.64492ZM4.20677 2.3864C4.20677 1.36691 5.01242 0.536862 6.00159 0.536862C6.99046 0.536862 7.79508 1.36721 7.79508 2.3864V3.64466H4.20677V2.3864Z" fill="#337D5A"/>
   </symbol>

   <symbol id='swiper-arrow' viewBox='0 0 23 21'>
      <path d="M13.4167 20.0833L12.075 18.7417L19.3584 11.4583H0V9.54168H19.3584L12.075 2.25831L13.4167 0.916679L23 10.5L13.4167 20.0833Z"/>
   </symbol>

   <symbol id='news-arrow' viewBox='0 0 18 10'>
      <path d="M17.7938 5.49771C17.7936 5.49792 17.7934 5.49816 17.7931 5.49838L14.1192 9.15463C13.8439 9.42853 13.3988 9.42751 13.1248 9.15224C12.8508 8.877 12.8519 8.43181 13.1271 8.15788L15.5938 5.70313H0.703125C0.314789 5.70313 0 5.38834 0 5C0 4.61166 0.314789 4.29688 0.703125 4.29688H15.5938L13.1272 1.84212C12.8519 1.56819 12.8509 1.123 13.1248 0.847764C13.3988 0.572455 13.844 0.571506 14.1192 0.845373L17.7932 4.50163C17.7934 4.50184 17.7936 4.50208 17.7938 4.50229C18.0692 4.77714 18.0683 5.22377 17.7938 5.49771Z"/>
   </symbol>

   <symbol id='wallet' viewBox='0 0 37 37'>
      <path d="M33.3465 6.3725L22.051 0.255928C20.9795 -0.324476 19.5061 0.121988 18.9257 1.1935L12.318 13.4713H4.28168C3.25481 13.4713 2.45117 14.2749 2.45117 15.3018V18.5163V35.1695C2.45117 36.1964 3.25481 37 4.28168 37H29.9534C30.9803 37 31.7839 36.1964 31.7839 35.1695V30.5263H32.5429C32.9447 30.5263 33.2573 30.2137 33.2573 29.8119V24.499C33.2573 24.0972 32.9447 23.7846 32.5429 23.7846H31.7839V18.561C31.7839 17.7127 31.1589 16.9537 30.3552 16.7751L34.2841 9.49775C34.8645 8.38159 34.4627 6.99755 33.3465 6.3725ZM25.3102 3.64906L18.256 16.7305H16.2469L23.7922 2.84543L25.3102 3.64906ZM20.2205 1.8632C20.4437 1.46138 20.9795 1.2828 21.3813 1.50603L22.4974 2.13108L14.6397 16.7305H12.1841L20.2205 1.8632ZM3.83521 15.2572C3.83521 15.1232 4.0138 14.9 4.23703 14.9H11.5144L10.5322 16.6858H4.23703C4.10309 16.6858 3.96915 16.6858 3.83521 16.7305V15.2572V15.2572ZM30.3106 35.1695C30.3106 35.3927 30.132 35.5713 29.9088 35.5713H4.23703C4.0138 35.5713 3.83521 35.3927 3.83521 35.1695V18.561C3.83521 18.3378 4.0138 18.1592 4.23703 18.1592H10.9787H13.836H19.0597H29.1051H29.8641C30.0874 18.1592 30.2659 18.3378 30.2659 18.561V23.7846H27.5425C26.337 23.7846 25.3995 24.7669 25.3995 25.9277V28.3832C25.3995 29.5887 26.3817 30.5263 27.5425 30.5263H30.3106V35.1695ZM31.7393 25.2133H31.7839V29.0976H31.7393H27.5425C27.1407 29.0976 26.8282 28.785 26.8282 28.3832V25.9277C26.8282 25.5258 27.1407 25.2133 27.5425 25.2133H31.7393V25.2133ZM32.9894 8.78341L28.7033 16.7305H19.8633L26.5603 4.36341L32.6322 7.66725C33.0787 7.84583 33.2126 8.38159 32.9894 8.78341Z"/>
      <path d="M30.2661 8.11372L29.909 7.93513C29.016 7.44402 27.8106 7.80119 27.3195 8.69412L26.873 9.5424C26.6498 9.98887 26.5605 10.5246 26.739 11.0157C26.873 11.5069 27.2302 11.9087 27.6766 12.1319L28.0338 12.3105C28.3017 12.4444 28.6142 12.5337 28.9267 12.5337C29.6411 12.5337 30.2661 12.1319 30.6233 11.5515L31.0698 10.7032C31.5162 9.76564 31.1591 8.60483 30.2661 8.11372ZM29.775 10.0335L29.3285 10.8818C29.1946 11.105 28.8821 11.1943 28.6588 11.0604L28.3017 10.8372C28.2124 10.7925 28.1231 10.6586 28.0784 10.5693C28.0338 10.4353 28.0338 10.3014 28.1231 10.2121L28.5696 9.36382C28.6588 9.22988 28.8374 9.09594 29.016 9.09594C29.1053 9.09594 29.15 9.09594 29.2393 9.14059L29.5964 9.31917C29.775 9.49776 29.8643 9.76564 29.775 10.0335Z"/>
   </symbol>
   
   <symbol id='lorry' viewBox='0 0 45 45'>
      <path d="M10.5 30.75C9.2574 30.75 8.25 31.7574 8.25 33C8.25 34.2426 9.25731 35.25 10.5 35.25C11.7427 35.25 12.75 34.2427 12.75 33C12.7486 31.758 11.7421 30.7513 10.5 30.75ZM10.5 33.75C10.0858 33.75 9.75003 33.4143 9.75003 33C9.75003 32.5858 10.0858 32.2501 10.5 32.2501C10.9142 32.2501 11.25 32.5858 11.25 33C11.2495 33.4141 10.9141 33.7496 10.5 33.75Z"/>
      <path d="M34.5 30.75C33.2574 30.75 32.25 31.7574 32.25 33C32.25 34.2426 33.2574 35.25 34.5 35.25C35.7426 35.25 36.75 34.2427 36.75 33C36.7487 31.758 35.7421 30.7513 34.5 30.75ZM34.5 33.75C34.0858 33.75 33.75 33.4143 33.75 33C33.75 32.5858 34.0859 32.2501 34.5 32.2501C34.9142 32.2501 35.25 32.5858 35.25 33C35.2496 33.4141 34.9141 33.7496 34.5 33.75Z"/>
      <path d="M44.4284 20.0742L39.2619 14.2559C38.8339 13.7739 38.2197 13.4987 37.5751 13.5H30.75V9C30.7487 7.75793 29.7421 6.75132 28.5 6.75H2.25C1.00793 6.75132 0.00131843 7.75793 7.32452e-08 9V28.5C-8.78174e-05 28.6989 0.0789259 28.8897 0.219639 29.0305C0.360264 29.1711 0.551074 29.2501 0.750059 29.2501H1.50003V31.5001C1.50135 32.7422 2.50796 33.7488 3.75003 33.7501H5.30991C5.67958 36.3323 7.89144 38.2501 10.5 38.2501C13.1086 38.2501 15.3205 36.3323 15.6901 33.7501H29.31C29.6797 36.3323 31.8916 38.2501 34.5001 38.2501C37.1087 38.2501 39.3206 36.3323 39.6903 33.7501H42.75C43.9921 33.7488 44.9987 32.7422 45 31.5001V21.5699C44.9995 21.018 44.796 20.4857 44.4284 20.0742ZM1.50003 27.75V9C1.50047 8.58595 1.83595 8.25038 2.25 8.25003H28.5C28.9141 8.25047 29.2496 8.58595 29.25 9V27.75H1.50003ZM5.30991 32.25H3.75003C3.33598 32.2495 3.00041 31.9141 3.00006 31.5V29.25H6.83297C6.00908 30.0553 5.47374 31.1097 5.30991 32.25ZM10.5 36.75C8.42897 36.75 6.75 35.071 6.75 32.9999C6.75 30.9289 8.42897 29.25 10.5 29.25C12.5711 29.25 14.2501 30.929 14.2501 33C14.2476 35.07 12.57 36.7476 10.5 36.75ZM18 32.25H15.6901C15.5262 31.1097 14.991 30.0552 14.1671 29.25H18V32.25ZM24.75 32.25H19.5V29.25H24.75V32.25ZM29.3099 32.25H26.25V29.25H30.8329C30.009 30.0553 29.4738 31.1097 29.3099 32.25ZM34.5 36.75C32.4289 36.75 30.7499 35.071 30.7499 32.9999C30.7499 30.9289 32.4288 29.2499 34.5 29.2499C36.571 29.2499 38.25 30.9289 38.25 32.9999C38.2475 35.07 36.5701 36.7476 34.5 36.75ZM43.5 31.5C43.4995 31.9141 43.1641 32.2496 42.75 32.25H39.6901C39.3161 29.6701 37.1069 27.7546 34.5 27.75H30.7499V15H33.75V22.5C33.7513 23.7421 34.7579 24.7487 36 24.75H43.5V31.5ZM43.5 23.25H36C35.5859 23.2495 35.2504 22.9141 35.25 22.5V15H37.5751C37.7904 14.9988 37.9959 15.09 38.1394 15.2505L43.3078 21.0711C43.4308 21.2082 43.4992 21.3856 43.5001 21.5699V23.25H43.5Z"/>
      <path d="M19.6233 12.8572C19.3721 12.5549 18.5822 11.5387 18.582 11.5383C18.5141 11.4515 18.4036 11.4098 18.2952 11.4313C18.2952 11.4313 17.0335 11.6801 16.6454 11.742C13.403 12.2582 11.3042 13.9051 10.2295 16.7765C8.73113 20.7795 11.7008 23.8651 13.5462 24.5558C15.3916 25.2466 19.6575 24.8692 21.1558 20.8662C22.2258 18.0077 21.7244 15.3878 19.6233 12.8572ZM13.7507 24.0095C12.0899 23.3879 9.42025 20.6025 10.7758 16.981C11.7705 14.3235 13.7203 12.7982 16.7373 12.318C17.04 12.2698 17.8674 12.1094 18.232 12.0381C18.46 12.3308 18.9789 12.9944 19.1745 13.23C21.1305 15.5853 21.5997 18.0163 20.6096 20.6618C19.2264 24.3572 15.1976 24.5511 13.7507 24.0095Z"/>
      <path d="M20.3704 19.6359C20.6499 18.8892 20.4648 18.0599 19.9131 17.4985C19.9435 17.4375 19.9703 17.3767 19.9935 17.3148C20.3881 16.2605 19.8513 15.0815 18.797 14.6869C18.7026 14.6516 18.6075 14.6254 18.5124 14.6072C18.4009 14.5873 18.2748 14.5124 18.2486 14.3694C18.1581 13.8718 18.022 13.2898 18.022 13.2898C17.9775 13.0998 17.7257 13.0055 17.5674 13.1196C17.5483 13.1335 17.0961 13.4599 16.7234 13.787C16.6066 13.8892 16.4547 13.8604 16.3506 13.8004C16.261 13.748 16.1665 13.7023 16.0654 13.6645C15.0112 13.2699 13.8322 13.8067 13.4376 14.8609C13.4144 14.9228 13.3946 14.9863 13.3775 15.0523C12.5928 15.1134 11.9087 15.6174 11.6292 16.3641C11.4389 16.8725 11.4638 17.4341 11.6939 17.9302C11.64 18.0238 11.5966 18.1155 11.5621 18.2075C11.279 18.9638 11.4753 19.8125 12.0482 20.3742C11.8924 21.3275 12.4242 22.2674 13.3399 22.6101C13.6232 22.7162 13.9223 22.7548 14.2309 22.7259C14.4446 22.9503 14.6956 23.1176 14.9789 23.2236C15.8947 23.5664 16.9128 23.2066 17.4213 22.3854C18.2222 22.3378 18.9275 21.8266 19.2106 21.0704C19.245 20.9783 19.2725 20.8806 19.2933 20.7747C19.7926 20.5516 20.1801 20.1443 20.3704 19.6359ZM14.1403 22.136C13.9336 22.1502 13.7323 22.1341 13.5445 22.0638C12.8514 21.8044 12.4671 21.0638 12.6505 20.3415C12.6579 20.3123 12.6492 20.2839 12.6475 20.2547C12.6633 20.2334 12.6801 20.2129 12.6899 20.1868C12.7483 20.0307 12.8313 19.8876 12.9369 19.7616C13.0402 19.6382 13.024 19.4542 12.9003 19.3507C12.7781 19.2481 12.5926 19.2635 12.4894 19.3873C12.4024 19.4912 12.33 19.6054 12.2655 19.7245C12.0097 19.3418 11.9427 18.8548 12.1084 18.412C12.1452 18.3139 12.1968 18.2173 12.2706 18.1078C12.333 18.0159 12.3376 17.8962 12.2825 17.7999C12.0644 17.4181 12.0256 16.9692 12.1755 16.5686C12.361 16.0732 12.7984 15.7311 13.3104 15.6507C13.3405 16.4494 13.84 17.1916 14.634 17.4888C14.785 17.5453 14.9529 17.4688 15.0094 17.3178C15.0659 17.1668 14.9895 16.9989 14.8385 16.9424C14.1893 16.6994 13.8175 16.04 13.9071 15.3803C13.9072 15.3799 13.9074 15.3796 13.9074 15.3796C13.9235 15.2624 13.9485 15.1598 13.9839 15.0654C14.2658 14.3123 15.1078 13.929 15.8609 14.2108C15.93 14.2367 15.9951 14.2683 16.0557 14.3038C16.4017 14.5057 16.8104 14.4777 17.0991 14.231L14.1402 22.136L14.1403 22.136ZM18.9349 20.2899C18.83 20.3263 18.755 20.4196 18.7417 20.5299C18.7255 20.661 18.701 20.7677 18.6643 20.8659C18.4987 21.3081 18.1291 21.6313 17.6857 21.7522C17.8477 21.0189 17.5954 20.2421 17.0098 19.7493C16.8849 19.6451 16.7024 19.6613 16.5988 19.7847C16.4951 19.908 16.5108 20.092 16.6341 20.1957C17.105 20.5918 17.2764 21.2457 17.0719 21.796L16.9885 21.9652C16.6525 22.6305 15.8764 22.9367 15.1833 22.6772C14.9955 22.6069 14.8331 22.4869 14.6865 22.3405L17.6599 14.3968C17.6647 14.4225 17.6701 14.4487 17.6748 14.474C17.7398 14.8301 18.0266 15.1078 18.402 15.1799C18.4658 15.1922 18.5295 15.2097 18.5925 15.2332C19.3455 15.5151 19.7289 16.3572 19.4471 17.1102C19.4125 17.2027 19.3644 17.2946 19.3018 17.391C19.165 17.6021 18.9779 17.7774 18.7509 17.8944C18.6077 17.9682 18.5515 18.1443 18.6254 18.2875C18.66 18.3543 18.7168 18.4023 18.7825 18.4268C18.8569 18.4547 18.9423 18.4523 19.0185 18.413C19.2275 18.3051 19.4112 18.1603 19.569 17.9917C19.9038 18.3886 20.0098 18.935 19.824 19.4313C19.6741 19.8321 19.3501 20.1451 18.9349 20.2899Z"/>
   </symbol>

   <symbol id='return-goods' viewBox='0 0 36 36'>
      <path d="M34.5116 7.34908L18.1991 1.16158C18.0709 1.11264 17.9291 1.11264 17.8009 1.16158L1.48837 7.34908C1.38158 7.3895 1.28962 7.46147 1.22471 7.55541C1.15981 7.64935 1.12503 7.76083 1.125 7.87501V28.125C1.12497 28.2388 1.15947 28.35 1.22395 28.4438C1.28842 28.5376 1.37984 28.6096 1.48613 28.6504L17.7986 34.9166C17.9278 34.9659 18.0705 34.9659 18.1997 34.9166L34.5122 28.7066C34.6188 28.6662 34.7106 28.5942 34.7754 28.5004C34.8402 28.4066 34.8749 28.2953 34.875 28.1813V7.87501C34.875 7.76083 34.8402 7.64935 34.7753 7.55541C34.7104 7.46147 34.6184 7.3895 34.5116 7.34908ZM18 2.28883L32.7268 7.87501L18 13.4612L13.5264 11.7641L20.5279 9.11252C20.6346 9.07203 20.7265 9.00004 20.7913 8.9061C20.8562 8.81216 20.8909 8.70072 20.8909 8.58658C20.8909 8.47243 20.8562 8.36099 20.7913 8.26705C20.7265 8.17311 20.6346 8.10112 20.5279 8.06064L16.3316 6.46876C16.2031 6.42006 16.0613 6.42006 15.9328 6.46876L7.74731 9.57208L3.27319 7.87501L18 2.28883ZM8.4375 11.0368L11.25 12.1056V20.5071L8.4375 19.4299V11.0368ZM9.333 10.1734L16.1325 7.59376L18.7419 8.58376L11.9402 11.1623L9.333 10.1734ZM2.25 8.69008L7.3125 10.6105V19.8169C7.31251 19.9308 7.3471 20.042 7.41168 20.1358C7.47626 20.2296 7.5678 20.3016 7.67419 20.3423L11.6117 21.8498C11.6969 21.8823 11.7887 21.8937 11.8792 21.8829C11.9698 21.872 12.0563 21.8394 12.1314 21.7877C12.2065 21.736 12.2679 21.6668 12.3104 21.5861C12.3528 21.5054 12.375 21.4156 12.375 21.3244V12.5303L17.4375 14.4506V33.5723L2.25 27.7386V8.69008ZM18.5625 33.5751V14.4501L33.75 8.69008V27.7937L18.5625 33.5751Z" />
      <path d="M23.9866 28.1357L20.6037 29.4232C20.4807 29.4699 20.3779 29.5583 20.3132 29.6729C20.2486 29.7876 20.2262 29.9212 20.25 30.0507C20.2737 30.1801 20.3421 30.2972 20.4432 30.3814C20.5443 30.4656 20.6718 30.5117 20.8034 30.5117C20.8719 30.5118 20.9398 30.4992 21.0037 30.4746L24.3865 29.187C24.4569 29.1617 24.5214 29.1226 24.5765 29.0721C24.6315 29.0216 24.676 28.9606 24.7072 28.8927C24.7384 28.8248 24.7558 28.7514 24.7583 28.6767C24.7608 28.602 24.7484 28.5276 24.7219 28.4577C24.6953 28.3879 24.6551 28.324 24.6035 28.2699C24.552 28.2158 24.4902 28.1724 24.4218 28.1425C24.3533 28.1125 24.2796 28.0964 24.2049 28.0953C24.1302 28.0941 24.056 28.1079 23.9866 28.1357Z" />
      <path d="M27.3586 26.8521L26.2263 27.283C26.1032 27.3296 26.0004 27.418 25.9358 27.5326C25.8712 27.6473 25.8488 27.781 25.8725 27.9104C25.8963 28.0399 25.9647 28.1569 26.0658 28.2411C26.1669 28.3253 26.2944 28.3714 26.426 28.3714C26.4944 28.3715 26.5623 28.3589 26.6262 28.3343L27.7585 27.9034C27.8289 27.8781 27.8934 27.839 27.9485 27.7885C28.0035 27.738 28.048 27.677 28.0792 27.6091C28.1104 27.5412 28.1278 27.4678 28.1303 27.3931C28.1328 27.3184 28.1204 27.244 28.0939 27.1741C28.0673 27.1043 28.0271 27.0404 27.9755 26.9863C27.924 26.9322 27.8622 26.8888 27.7938 26.8589C27.7253 26.8289 27.6516 26.8128 27.5769 26.8117C27.5022 26.8105 27.428 26.8243 27.3586 26.8521Z" />
      <path d="M23.9866 25.8857L20.6037 27.1732C20.4807 27.2199 20.3779 27.3083 20.3132 27.4229C20.2486 27.5376 20.2262 27.6712 20.25 27.8007C20.2737 27.9301 20.3421 28.0472 20.4432 28.1314C20.5443 28.2156 20.6718 28.2617 20.8034 28.2617C20.8719 28.2618 20.9398 28.2492 21.0037 28.2246L24.3865 26.937C24.4569 26.9117 24.5214 26.8726 24.5765 26.8221C24.6315 26.7716 24.676 26.7106 24.7072 26.6427C24.7384 26.5748 24.7558 26.5014 24.7583 26.4267C24.7608 26.352 24.7484 26.2776 24.7219 26.2077C24.6953 26.1379 24.6551 26.074 24.6035 26.0199C24.552 25.9658 24.4902 25.9224 24.4218 25.8925C24.3533 25.8625 24.2796 25.8464 24.2049 25.8453C24.1302 25.8441 24.056 25.8579 23.9866 25.8857Z" />
      <path d="M27.3586 24.6021L26.2263 25.033C26.1032 25.0796 26.0004 25.168 25.9358 25.2826C25.8712 25.3973 25.8488 25.531 25.8725 25.6604C25.8963 25.7899 25.9647 25.9069 26.0658 25.9911C26.1669 26.0753 26.2944 26.1214 26.426 26.1214C26.4944 26.1215 26.5623 26.1089 26.6262 26.0843L27.7585 25.6534C27.8289 25.6281 27.8934 25.589 27.9485 25.5385C28.0035 25.488 28.048 25.427 28.0792 25.3591C28.1104 25.2912 28.1278 25.2178 28.1303 25.1431C28.1328 25.0684 28.1204 24.994 28.0939 24.9241C28.0673 24.8543 28.0271 24.7904 27.9755 24.7363C27.924 24.6822 27.8622 24.6388 27.7938 24.6089C27.7253 24.5789 27.6516 24.5628 27.5769 24.5617C27.5022 24.5605 27.428 24.5743 27.3586 24.6021Z" />
      <path d="M23.9866 23.6357L20.6037 24.9233C20.4807 24.9699 20.3779 25.0583 20.3132 25.1729C20.2486 25.2876 20.2262 25.4212 20.25 25.5507C20.2737 25.6801 20.3421 25.7972 20.4432 25.8814C20.5443 25.9656 20.6718 26.0117 20.8034 26.0117C20.8719 26.0118 20.9398 25.9992 21.0037 25.9746L24.3865 24.687C24.4569 24.6617 24.5214 24.6226 24.5765 24.5721C24.6315 24.5216 24.676 24.4606 24.7072 24.3927C24.7384 24.3248 24.7558 24.2514 24.7583 24.1767C24.7608 24.102 24.7484 24.0276 24.7219 23.9577C24.6953 23.8879 24.6551 23.824 24.6035 23.7699C24.552 23.7158 24.4902 23.6724 24.4218 23.6425C24.3533 23.6125 24.2796 23.5964 24.2049 23.5953C24.1302 23.5941 24.056 23.6079 23.9866 23.6357Z" />
      <path d="M27.3586 22.3521L26.2263 22.783C26.1032 22.8296 26.0004 22.918 25.9358 23.0326C25.8712 23.1473 25.8488 23.281 25.8725 23.4104C25.8963 23.5399 25.9647 23.6569 26.0658 23.7411C26.1669 23.8253 26.2944 23.8714 26.426 23.8714C26.4944 23.8715 26.5623 23.8589 26.6262 23.8343L27.7585 23.4034C27.8289 23.3781 27.8934 23.339 27.9485 23.2885C28.0035 23.238 28.048 23.177 28.0792 23.1091C28.1104 23.0412 28.1278 22.9678 28.1303 22.8931C28.1328 22.8184 28.1204 22.744 28.0939 22.6741C28.0673 22.6043 28.0271 22.5404 27.9755 22.4863C27.924 22.4322 27.8622 22.3888 27.7938 22.3589C27.7253 22.3289 27.6516 22.3128 27.5769 22.3117C27.5022 22.3105 27.428 22.3243 27.3586 22.3521Z" />
   </symbol>

   <symbol id='supermarket' viewBox='0 0 37 37'>
      <path d="M17.2672 10.4833C17.2651 10.2729 17.2268 10.0642 17.1537 9.86667H19.8474C19.7742 10.0642 19.736 10.2729 19.7339 10.4833C19.7339 11.505 20.5622 12.3333 21.5839 12.3333C22.6055 12.3333 23.4339 11.505 23.4339 10.4833C23.4317 10.2729 23.3935 10.0642 23.3203 9.86667H24.0505C24.3685 9.86817 24.6353 9.62789 24.6672 9.31173L25.2839 3.14506C25.3013 2.97102 25.2441 2.79788 25.1267 2.66841C25.0089 2.53923 24.8421 2.46576 24.6672 2.46667H12.6045L12.3278 0.529045C12.2842 0.225529 12.024 0 11.7172 0H9.86719V1.23333H11.1824L12.3399 9.33762C12.3835 9.64114 12.6437 9.86667 12.9505 9.86667H13.6807C13.6075 10.0642 13.5693 10.2729 13.5672 10.4833C13.5672 11.505 14.3955 12.3333 15.4172 12.3333C16.4388 12.3333 17.2672 11.505 17.2672 10.4833ZM22.2005 10.4833C22.2005 10.8239 21.9244 11.1 21.5839 11.1C21.2433 11.1 20.9672 10.8239 20.9672 10.4833C20.9672 10.1428 21.2433 9.86667 21.5839 9.86667C21.9244 9.86667 22.2005 10.1428 22.2005 10.4833ZM12.781 3.7H23.9888L23.4956 8.63333H13.4853L12.781 3.7ZM15.4172 11.1C15.0766 11.1 14.8005 10.8239 14.8005 10.4833C14.8005 10.1428 15.0766 9.86667 15.4172 9.86667C15.7577 9.86667 16.0339 10.1428 16.0339 10.4833C16.0339 10.8239 15.7577 11.1 15.4172 11.1Z"/>
      <path d="M36.5333 17.285L27.1333 14.9352V12.95C27.1333 12.6095 26.8572 12.3333 26.5167 12.3333H10.4833C10.1428 12.3333 9.86667 12.6095 9.86667 12.95V14.9352L0.466716 17.285C0.192407 17.354 0 17.6006 0 17.8833V36.3833C0 36.7239 0.276115 37 0.616667 37H36.3833C36.7239 37 37 36.7239 37 36.3833V17.8833C37 17.6006 36.8076 17.354 36.5333 17.285ZM1.23333 18.3648L9.86667 16.2065V35.7667H1.23333V18.3648ZM11.1 13.5667H25.9V35.7667H22.8167V30.2167C22.8167 29.8761 22.5406 29.6 22.2 29.6H14.8C14.4594 29.6 14.1833 29.8761 14.1833 30.2167V35.7667H11.1V13.5667ZM15.4167 30.8333H17.8833V35.7667H15.4167V30.8333ZM19.1167 35.7667V30.8333H21.5833V35.7667H19.1167ZM35.7667 35.7667H27.1333V16.2065L35.7667 18.3648V35.7667Z"/>
      <path d="M17.2668 28.3667C17.6074 28.3667 17.8835 28.0905 17.8835 27.75V25.2833C17.8835 24.9428 17.6074 24.6667 17.2668 24.6667H12.9502C12.6096 24.6667 12.3335 24.9428 12.3335 25.2833V27.75C12.3335 28.0905 12.6096 28.3667 12.9502 28.3667H17.2668ZM13.5668 25.9H16.6502V27.1333H13.5668V25.9Z"/>
      <path d="M19.7339 28.3667H24.0505C24.3911 28.3667 24.6672 28.0905 24.6672 27.75V25.2833C24.6672 24.9428 24.3911 24.6667 24.0505 24.6667H19.7339C19.3933 24.6667 19.1172 24.9428 19.1172 25.2833V27.75C19.1172 28.0905 19.3933 28.3667 19.7339 28.3667ZM20.3505 25.9H23.4338V27.1333H20.3505V25.9Z"/>
      <path d="M12.9502 23.4333H17.2668C17.6074 23.4333 17.8835 23.1572 17.8835 22.8167V20.35C17.8835 20.0095 17.6074 19.7333 17.2668 19.7333H12.9502C12.6096 19.7333 12.3335 20.0095 12.3335 20.35V22.8167C12.3335 23.1572 12.6096 23.4333 12.9502 23.4333ZM13.5668 20.9667H16.6502V22.2H13.5668V20.9667Z"/>
      <path d="M19.7339 23.4333H24.0505C24.3911 23.4333 24.6672 23.1572 24.6672 22.8167V20.35C24.6672 20.0095 24.3911 19.7333 24.0505 19.7333H19.7339C19.3933 19.7333 19.1172 20.0095 19.1172 20.35V22.8167C19.1172 23.1572 19.3933 23.4333 19.7339 23.4333ZM20.3505 20.9667H23.4338V22.2H20.3505V20.9667Z"/>
      <path d="M12.9502 18.5H17.2668C17.6074 18.5 17.8835 18.2239 17.8835 17.8833V15.4167C17.8835 15.0761 17.6074 14.8 17.2668 14.8H12.9502C12.6096 14.8 12.3335 15.0761 12.3335 15.4167V17.8833C12.3335 18.2239 12.6096 18.5 12.9502 18.5ZM13.5668 16.0333H16.6502V17.2666H13.5668V16.0333Z"/>
      <path d="M19.7339 18.5H24.0505C24.3911 18.5 24.6672 18.2239 24.6672 17.8833V15.4167C24.6672 15.0761 24.3911 14.8 24.0505 14.8H19.7339C19.3933 14.8 19.1172 15.0761 19.1172 15.4167V17.8833C19.1172 18.2239 19.3933 18.5 19.7339 18.5ZM20.3505 16.0333H23.4338V17.2666H20.3505V16.0333Z"/>
      <path d="M28.9839 28.3667H33.9172C34.2577 28.3667 34.5339 28.0905 34.5339 27.75V25.2833C34.5339 24.9428 34.2577 24.6667 33.9172 24.6667H28.9839C28.6433 24.6667 28.3672 24.9428 28.3672 25.2833V27.75C28.3672 28.0905 28.6433 28.3667 28.9839 28.3667ZM29.6005 25.9H33.3005V27.1333H29.6005V25.9Z"/>
      <path d="M28.9839 23.4333H33.9172C34.2577 23.4333 34.5339 23.1572 34.5339 22.8167V20.35C34.5339 20.0095 34.2577 19.7333 33.9172 19.7333H28.9839C28.6433 19.7333 28.3672 20.0095 28.3672 20.35V22.8167C28.3672 23.1572 28.6433 23.4333 28.9839 23.4333ZM29.6005 20.9667H33.3005V22.2H29.6005V20.9667Z"/>
      <path d="M28.9839 34.5333H33.9172C34.2577 34.5333 34.5339 34.2572 34.5339 33.9166V30.2166C34.5339 29.8761 34.2577 29.6 33.9172 29.6H28.9839C28.6433 29.6 28.3672 29.8761 28.3672 30.2166V33.9166C28.3672 34.2572 28.6433 34.5333 28.9839 34.5333ZM29.6005 30.8333H33.3005V33.3H29.6005V30.8333Z"/>
      <path d="M8.01631 24.6667H3.08298C2.74242 24.6667 2.46631 24.9428 2.46631 25.2833V27.75C2.46631 28.0905 2.74242 28.3667 3.08298 28.3667H8.01631C8.35686 28.3667 8.63298 28.0905 8.63298 27.75V25.2833C8.63298 24.9428 8.35686 24.6667 8.01631 24.6667ZM7.39964 27.1333H3.69964V25.9H7.39964V27.1333Z"/>
      <path d="M8.01631 19.7333H3.08298C2.74242 19.7333 2.46631 20.0095 2.46631 20.35V22.8167C2.46631 23.1572 2.74242 23.4333 3.08298 23.4333H8.01631C8.35686 23.4333 8.63298 23.1572 8.63298 22.8167V20.35C8.63298 20.0095 8.35686 19.7333 8.01631 19.7333ZM7.39964 22.2H3.69964V20.9667H7.39964V22.2Z"/>
      <path d="M8.01631 29.6H3.08298C2.74242 29.6 2.46631 29.8761 2.46631 30.2166V33.9166C2.46631 34.2572 2.74242 34.5333 3.08298 34.5333H8.01631C8.35686 34.5333 8.63298 34.2572 8.63298 33.9166V30.2166C8.63298 29.8761 8.35686 29.6 8.01631 29.6ZM7.39964 33.3H3.69964V30.8333H7.39964V33.3Z"/>
   </symbol>

   <symbol id='shop' viewBox='0 0 37 37'>
      <path d="M36.3868 17.7712C36.3866 17.7572 36.3858 17.7432 36.3847 17.7292C36.3843 17.725 36.384 17.7207 36.3835 17.7164C36.3819 17.7032 36.3799 17.6902 36.3775 17.677C36.3765 17.6721 36.3757 17.6671 36.3746 17.6622C36.3721 17.6504 36.369 17.6387 36.3656 17.6271C36.3639 17.6211 36.3622 17.6151 36.3603 17.6092C36.357 17.5991 36.3532 17.589 36.3493 17.579C36.3465 17.572 36.3437 17.5649 36.3407 17.5579C36.3368 17.5492 36.3325 17.5405 36.3281 17.5319C36.3242 17.5243 36.3203 17.5168 36.316 17.5093C36.3139 17.5056 36.3122 17.5018 36.31 17.4981L34.2192 14.0144V11.3827C34.2192 11.0834 33.9767 10.8407 33.6773 10.8407H33.6772H33.6771H22.9208C24.0943 9.69205 24.8239 8.09158 24.8239 6.32368C24.8239 2.83671 21.9871 0 18.5003 0C15.0134 0 12.1766 2.83671 12.1766 6.3236C12.1766 8.09151 12.9062 9.69198 14.0797 10.8406H3.32368C3.02428 10.8406 2.78168 11.0833 2.78168 11.3826V14.0139L0.690605 17.4981C0.688943 17.5009 0.687715 17.5037 0.686125 17.5065C0.68056 17.5162 0.675357 17.526 0.670299 17.536C0.667191 17.5423 0.664012 17.5487 0.661121 17.5551C0.656857 17.5645 0.6531 17.5741 0.649342 17.5838C0.646523 17.5913 0.643705 17.5986 0.641176 17.6062C0.638357 17.6149 0.635828 17.6236 0.633371 17.6325C0.630914 17.6413 0.628529 17.6501 0.626506 17.6589C0.624844 17.6666 0.623398 17.6745 0.621953 17.6824C0.620219 17.6926 0.618484 17.7027 0.617328 17.713C0.616533 17.72 0.615955 17.7271 0.615449 17.7343C0.61451 17.7453 0.613932 17.7564 0.613787 17.7674C0.613715 17.7706 0.613281 17.7737 0.613281 17.777C0.613281 17.786 0.613932 17.7949 0.614004 17.8039C0.614004 17.8046 0.614004 17.8053 0.614076 17.8059C0.629758 19.2869 1.83876 20.487 3.32339 20.487C4.209 20.487 4.99662 20.06 5.4915 19.4011C5.9863 20.06 6.774 20.487 7.65961 20.487C8.54523 20.487 9.33285 20.06 9.82773 19.4011C10.3225 20.06 11.1102 20.487 11.9958 20.487C12.8815 20.487 13.6691 20.06 14.164 19.4011C14.6588 20.06 15.4465 20.487 16.3321 20.487C17.2177 20.487 18.0053 20.06 18.5002 19.4011C18.995 20.06 19.7827 20.487 20.6683 20.487C21.5539 20.487 22.3415 20.06 22.8364 19.4011C23.3312 20.06 24.1189 20.487 25.0045 20.487C25.8901 20.487 26.6778 20.06 27.1726 19.4011C27.6674 20.06 28.4551 20.487 29.3407 20.487C30.2264 20.487 31.0139 20.06 31.5088 19.4012C32.0037 20.0601 32.7913 20.487 33.6769 20.487C35.1606 20.487 36.369 19.2883 36.3861 17.8086C36.3866 17.8036 36.3866 17.7985 36.3867 17.7934C36.3867 17.7879 36.3871 17.7825 36.3871 17.7771C36.3871 17.7751 36.3868 17.7732 36.3868 17.7712ZM13.2606 6.3236C13.2606 3.4345 15.6111 1.08398 18.5003 1.08398C21.3894 1.08398 23.7399 3.43442 23.7399 6.3236C23.7399 9.21278 21.3894 11.5632 18.5003 11.5632C15.6111 11.5632 13.2606 9.21278 13.2606 6.3236ZM3.32346 19.4031C2.61685 19.4031 2.01437 18.9499 1.79063 18.319H4.85636C4.63269 18.9499 4.03014 19.4031 3.32346 19.4031ZM5.14123 17.235H2.11287L3.63052 14.7061H6.27934L5.14123 17.235ZM7.65968 19.4031C6.95307 19.4031 6.35059 18.9499 6.12686 18.319H9.19258C8.96885 18.9499 8.36637 19.4031 7.65968 19.4031ZM9.42455 17.235H6.32993L7.46811 14.7061H10.1833L9.42455 17.235ZM11.9959 19.4031C11.2893 19.4031 10.6868 18.9499 10.4631 18.319H13.5288C13.3051 18.9499 12.7026 19.4031 11.9959 19.4031ZM13.6972 17.235H10.5563L11.3151 14.7061H14.0766L13.6972 17.235ZM16.3321 19.4031C15.6255 19.4031 15.023 18.9499 14.7993 18.319H17.865C17.6413 18.9499 17.0387 19.4031 16.3321 19.4031ZM17.9582 17.235H14.7934L15.1728 14.7061H17.9582V17.235ZM20.6683 19.4031C19.9617 19.4031 19.3592 18.9499 19.1355 18.319H22.2012C21.9775 18.9499 21.375 19.4031 20.6683 19.4031ZM19.0422 17.235V14.7061H21.8276L22.207 17.235H19.0422ZM10.9105 13.6221C10.9082 13.6221 10.9059 13.622 10.9035 13.6221H7.13048C7.13027 13.6221 7.13005 13.6221 7.12976 13.6221H3.86574V11.9248H15.5676C16.4447 12.3858 17.4425 12.6474 18.5003 12.6474C19.5581 12.6474 20.5558 12.3859 21.4329 11.9248H33.1352V13.6221H29.8707C29.8704 13.6221 29.8702 13.6221 29.8699 13.6221H26.0963C26.0946 13.622 26.0929 13.6221 26.0913 13.6221H10.9105ZM22.9238 14.7061H25.6853L26.444 17.235H23.3032L22.9238 14.7061ZM25.0045 19.4031C24.2979 19.4031 23.6954 18.9499 23.4717 18.319H26.5374C26.3137 18.9499 25.7112 19.4031 25.0045 19.4031ZM26.8172 14.7061H29.5324L30.6706 17.235H27.5759L26.8172 14.7061ZM29.3407 19.4031C28.6341 19.4031 28.0317 18.9499 27.8079 18.319H30.8736C30.6499 18.9499 30.0474 19.4031 29.3407 19.4031ZM30.7211 14.7061H33.37L34.8877 17.235H31.8592L30.7211 14.7061ZM33.6769 19.4031C32.9703 19.4031 32.3679 18.9499 32.1441 18.319H35.2098C34.986 18.9499 34.3835 19.4031 33.6769 19.4031Z"/>
      <path d="M33.677 21.6428C33.3776 21.6428 33.1351 21.8854 33.1351 22.1848V35.9159H31.3283V22.7263C31.3283 22.427 31.0857 22.1843 30.7863 22.1843H23.5591C23.2597 22.1843 23.0171 22.427 23.0171 22.7263V35.9159H21.2102V34.2895C21.2102 33.9902 20.9676 33.7475 20.6682 33.7475H20.4875V33.5669C20.4875 33.2676 20.2449 33.025 19.9455 33.025C19.6461 33.025 19.4035 33.2676 19.4035 33.5669V33.7475H18.3194V33.5669C18.3194 33.2676 18.0768 33.025 17.7775 33.025C17.4781 33.025 17.2355 33.2676 17.2355 33.5669V33.7475H16.1514V33.5669C16.1514 33.2676 15.9088 33.025 15.6094 33.025C15.31 33.025 15.0674 33.2676 15.0674 33.5669V33.7475H13.9834V33.5669C13.9834 33.2676 13.7408 33.025 13.4414 33.025C13.142 33.025 12.8994 33.2676 12.8994 33.5669V33.7475H11.8153V33.5669C11.8153 33.2676 11.5727 33.025 11.2733 33.025C10.9739 33.025 10.7313 33.2676 10.7313 33.5669V33.7475H9.64728V33.5669C9.64728 33.2676 9.40468 33.025 9.10529 33.025C8.80589 33.025 8.56329 33.2676 8.56329 33.5669V33.7475H7.47924V33.5669C7.47924 33.2676 7.23664 33.025 6.93725 33.025C6.63785 33.025 6.39525 33.2676 6.39525 33.5669V33.7475H6.21401C5.91462 33.7475 5.67202 33.9902 5.67202 34.2895V35.9159H3.86523V22.1848C3.86523 21.8854 3.62264 21.6428 3.32324 21.6428C3.02385 21.6428 2.78125 21.8854 2.78125 22.1848V36.458C2.78125 36.7573 3.02385 37.0001 3.32324 37.0001H6.21401H20.6682H23.5591H30.7862H33.677C33.9764 37.0001 34.219 36.7574 34.219 36.458V22.1848C34.219 21.8854 33.9764 21.6428 33.677 21.6428ZM20.1262 35.9159H6.756V34.8315H20.1262V35.9159ZM30.2442 35.9159H24.1012V23.2683H30.2442V35.9159Z"/>
      <path d="M20.6679 22.1842H6.21387C5.91447 22.1842 5.67188 22.4269 5.67188 22.7262V30.676C5.67188 30.9754 5.91454 31.218 6.21387 31.218H20.668C20.9674 31.218 21.21 30.9754 21.21 30.676V22.7263C21.21 22.4269 20.9674 22.1842 20.6679 22.1842ZM20.1259 30.134H6.75586V23.2683H20.1259V30.134Z"/>
      <path d="M28.6179 29.4112H25.7275C25.4281 29.4112 25.1855 29.6538 25.1855 29.9532C25.1855 30.2525 25.4281 30.4951 25.7275 30.4951H28.6179C28.9173 30.4951 29.1599 30.2525 29.1599 29.9532C29.16 29.6539 28.9174 29.4112 28.6179 29.4112Z"/>
      <path d="M21.5662 9.12916L21.2083 4.83326C21.1849 4.55229 20.95 4.33622 20.6681 4.33622H20.1262V3.79408C20.1262 2.89741 19.3967 2.16803 18.5002 2.16803C17.6036 2.16803 16.8741 2.89748 16.8741 3.79408V4.33622H16.3322C16.0537 4.33622 15.8206 4.54716 15.7928 4.82422L15.3591 9.16045C15.3439 9.31286 15.3938 9.46454 15.4966 9.57807C15.5994 9.69167 15.7453 9.75642 15.8985 9.75642H21.0295C21.03 9.7565 21.0305 9.7565 21.0309 9.75642C21.3303 9.75642 21.5729 9.51376 21.5729 9.21443C21.5728 9.18545 21.5706 9.15691 21.5662 9.12916ZM17.958 3.79408C17.958 3.49519 18.2011 3.25209 18.5001 3.25209C18.799 3.25209 19.0421 3.49519 19.0421 3.79408V4.33622H17.958V3.79408ZM16.4973 8.67237L16.8226 5.4202H20.1694L20.4404 8.67237H16.4973Z"/>
   </symbol>

   <symbol id='table' viewBox='0 0 49 49'>
      <path d="M2.29688 13.7812H5.35938C5.56243 13.7812 5.75717 13.8619 5.90075 14.0055C6.04434 14.1491 6.125 14.3438 6.125 14.5469V30.625H12.25C12.6561 30.625 13.0456 30.7863 13.3328 31.0735C13.6199 31.3607 13.7812 31.7501 13.7812 32.1562V33.6875C13.9843 33.6875 14.179 33.7682 14.3226 33.9117C14.4662 34.0553 14.5469 34.2501 14.5469 34.4531V36.75C14.5469 36.9531 14.4662 37.1478 14.3226 37.2914C14.179 37.435 13.9843 37.5156 13.7812 37.5156H13.0156V46.7031C13.0156 46.9062 12.935 47.1009 12.7914 47.2445C12.6478 47.3881 12.4531 47.4688 12.25 47.4688H9.95312C9.75007 47.4688 9.55533 47.3881 9.41175 47.2445C9.26816 47.1009 9.1875 46.9062 9.1875 46.7031V37.5156H5.35938V46.7031C5.35938 46.9062 5.27871 47.1009 5.13513 47.2445C4.99155 47.3881 4.79681 47.4688 4.59375 47.4688H2.29688C2.09382 47.4688 1.89908 47.3881 1.7555 47.2445C1.61191 47.1009 1.53125 46.9062 1.53125 46.7031V14.5469C1.53125 14.3438 1.61191 14.1491 1.7555 14.0055C1.89908 13.8619 2.09382 13.7812 2.29688 13.7812ZM13.0156 35.9844V35.2188H3.0625V35.9844H13.0156ZM12.25 32.1562H6.125V32.9219H4.59375V15.3125H3.0625V33.6875H12.25V32.1562ZM10.7188 45.9375H11.4844V37.5156H10.7188V45.9375ZM3.0625 45.9375H3.82812V37.5156H3.0625V45.9375Z"/>
      <path d="M15.3125 29.8594C14.9064 29.8594 14.5169 29.698 14.2297 29.4109C13.9426 29.1237 13.7812 28.7342 13.7812 28.3281V27.5625H13.0156C12.8126 27.5625 12.6178 27.4818 12.4742 27.3383C12.3307 27.1947 12.25 26.9999 12.25 26.7969V25.2656C12.25 24.6565 12.492 24.0722 12.9227 23.6415C13.3535 23.2107 13.9377 22.9688 14.5469 22.9688H16.3706C16.0399 22.6841 15.7742 22.3317 15.5917 21.9354C15.4091 21.5391 15.3139 21.1082 15.3125 20.6719H13.7812V19.1406H15.3125V18.375C15.3125 18.1719 15.3932 17.9772 15.5367 17.8336C15.6803 17.69 15.8751 17.6094 16.0781 17.6094H20.6719C20.8749 17.6094 21.0697 17.69 21.2133 17.8336C21.3568 17.9772 21.4375 18.1719 21.4375 18.375V20.6719C21.4361 21.1082 21.3409 21.5391 21.1583 21.9354C20.9758 22.3317 20.7101 22.6841 20.3794 22.9688H28.6206C28.2899 22.6841 28.0242 22.3317 27.8417 21.9354C27.6591 21.5391 27.5639 21.1082 27.5625 20.6719V18.375C27.5625 18.1719 27.6432 17.9772 27.7867 17.8336C27.9303 17.69 28.1251 17.6094 28.3281 17.6094H32.9219C33.1249 17.6094 33.3197 17.69 33.4633 17.8336C33.6068 17.9772 33.6875 18.1719 33.6875 18.375V19.1406H35.2188V20.6719H33.6875C33.6861 21.1082 33.5909 21.5391 33.4083 21.9354C33.2258 22.3317 32.9601 22.6841 32.6294 22.9688H34.4531C35.0623 22.9688 35.6465 23.2107 36.0773 23.6415C36.508 24.0722 36.75 24.6565 36.75 25.2656V26.7969C36.75 26.9999 36.6693 27.1947 36.5258 27.3383C36.3822 27.4818 36.1874 27.5625 35.9844 27.5625H35.2188V28.3281C35.2188 28.7342 35.0574 29.1237 34.7703 29.4109C34.4831 29.698 34.0936 29.8594 33.6875 29.8594H26.7969V42.875H27.5625C27.7656 42.875 27.9603 42.9557 28.1039 43.0992C28.2475 43.2428 28.3281 43.4376 28.3281 43.6406V45.9375H31.3906V47.4688H17.6094V45.9375H20.6719V43.6406C20.6719 43.4376 20.7525 43.2428 20.8961 43.0992C21.0397 42.9557 21.2344 42.875 21.4375 42.875H22.2031V29.8594H15.3125ZM19.9062 19.1406H16.8438V20.6719C16.8438 21.078 17.0051 21.4675 17.2922 21.7546C17.5794 22.0418 17.9689 22.2031 18.375 22.2031C18.7811 22.2031 19.1706 22.0418 19.4578 21.7546C19.7449 21.4675 19.9062 21.078 19.9062 20.6719V19.1406ZM32.1562 19.1406H29.0938V20.6719C29.0938 21.078 29.2551 21.4675 29.5422 21.7546C29.8294 22.0418 30.2189 22.2031 30.625 22.2031C31.0311 22.2031 31.4206 22.0418 31.7078 21.7546C31.9949 21.4675 32.1562 21.078 32.1562 20.6719V19.1406ZM35.2188 25.2656C35.2188 25.0626 35.1381 24.8678 34.9945 24.7242C34.8509 24.5807 34.6562 24.5 34.4531 24.5H14.5469C14.3438 24.5 14.1491 24.5807 14.0055 24.7242C13.8619 24.8678 13.7812 25.0626 13.7812 25.2656V26.0312H35.2188V25.2656ZM33.6875 27.5625H15.3125V28.3281H33.6875V27.5625ZM26.7969 45.9375V44.4062H22.2031V45.9375H26.7969ZM23.7344 42.875H25.2656V29.8594H23.7344V42.875Z"/>
      <path d="M35.2188 33.6875V32.1562C35.2188 31.7501 35.3801 31.3607 35.6672 31.0735C35.9544 30.7863 36.3439 30.625 36.75 30.625H42.875V14.5469C42.875 14.3438 42.9557 14.1491 43.0992 14.0055C43.2428 13.8619 43.4376 13.7812 43.6406 13.7812H46.7031C46.9062 13.7812 47.1009 13.8619 47.2445 14.0055C47.3881 14.1491 47.4688 14.3438 47.4688 14.5469V46.7031C47.4688 46.9062 47.3881 47.1009 47.2445 47.2445C47.1009 47.3881 46.9062 47.4688 46.7031 47.4688H44.4062C44.2032 47.4688 44.0085 47.3881 43.8649 47.2445C43.7213 47.1009 43.6406 46.9062 43.6406 46.7031V37.5156H39.8125V46.7031C39.8125 46.9062 39.7318 47.1009 39.5883 47.2445C39.4447 47.3881 39.2499 47.4688 39.0469 47.4688H36.75C36.5469 47.4688 36.3522 47.3881 36.2086 47.2445C36.065 47.1009 35.9844 46.9062 35.9844 46.7031V37.5156H35.2188C35.0157 37.5156 34.821 37.435 34.6774 37.2914C34.5338 37.1478 34.4531 36.9531 34.4531 36.75V34.4531C34.4531 34.2501 34.5338 34.0553 34.6774 33.9117C34.821 33.7682 35.0157 33.6875 35.2188 33.6875ZM45.9375 15.3125H44.4062V32.9219H42.875V32.1562H36.75V33.6875H45.9375V15.3125ZM45.1719 45.9375H45.9375V37.5156H45.1719V45.9375ZM37.5156 45.9375H38.2812V37.5156H37.5156V45.9375ZM35.9844 35.9844H45.9375V35.2188H35.9844V35.9844Z"/>
   </symbol>

   <symbol id='dumbbell' viewBox='0 0 45 45'>
      <path d="M44.2615 19.201H41.7253V15.7806C41.7253 15.3822 41.3949 15.0518 40.9965 15.0518H36.8862V11.6217C36.8862 11.2233 36.5558 10.8929 36.1574 10.8929H31.3183C30.9199 10.8929 30.5895 11.2233 30.5895 11.6217V19.201H14.2745V11.6217C14.2745 11.2233 13.9441 10.8929 13.5457 10.8929H8.70654C8.30814 10.8929 7.97776 11.2233 7.97776 11.6217V15.0421H3.86742C3.46901 15.0421 3.13863 15.3725 3.13863 15.7709V19.1913H0.728784C0.330382 19.1913 0 19.5217 0 19.9201V24.9536C0 25.352 0.330382 25.6823 0.728784 25.6823H3.14835V29.2291C3.14835 29.6275 3.47873 29.9579 3.87713 29.9579H7.98748V33.3783C7.98748 33.7767 8.31786 34.1071 8.71626 34.1071H13.5554C13.9538 34.1071 14.2842 33.7767 14.2842 33.3783V25.6726H30.5992V33.3783C30.5992 33.7767 30.9296 34.1071 31.328 34.1071H36.1671C36.5655 34.1071 36.8959 33.7767 36.8959 33.3783V29.9579H41.0063C41.4047 29.9579 41.735 29.6275 41.735 29.2291V25.6823H44.2712C44.6696 25.6823 45 25.352 45 24.9536V19.9201C44.9903 19.5217 44.6599 19.201 44.2615 19.201ZM3.14835 24.2345H1.45757V24.2248V20.6586H3.14835V24.2345ZM7.98748 28.51H4.60592V16.5094H7.98748V28.51ZM12.8169 32.6592H9.43533V12.3505H12.8169V32.6592ZM30.5895 24.2345H14.2745V24.2248V20.6586H30.5895V24.2345ZM35.4286 32.6592H32.0471V12.3505H35.4286V32.6592ZM40.2678 28.51H36.8862V16.5094H40.2678V28.51ZM43.5327 24.2248H41.7253V20.6586H43.5327V24.2248Z"/>
   </symbol>

   <symbol id='cake' viewBox='0 0 43 43'>
      <path d="M17.9158 30.4696H19.3491V31.9029H17.9158V30.4696Z"/>
      <path d="M19.3491 31.9029H20.7824V33.3362H19.3491V31.9029Z"/>
      <path d="M32.2493 30.4696H33.6826V31.9029H32.2493V30.4696Z"/>
      <path d="M30.8162 31.9029H32.2495V33.3362H30.8162V31.9029Z"/>
      <path d="M8.59912 31.9029H10.0324V33.3362H8.59912V31.9029Z"/>
      <path d="M10.0325 30.4696H11.4658V31.9029H10.0325V30.4696Z"/>
      <path d="M14.3328 21.8694H15.7661V23.303H14.3328V21.8694Z"/>
      <path d="M15.7661 20.4361H17.1994V21.8694H15.7661V20.4361Z"/>
      <path d="M27.9495 21.1529H29.3828V22.5862H27.9495V21.1529Z"/>
      <path d="M37.2661 21.1529H38.6994V22.5862H37.2661V21.1529Z"/>
      <path d="M40.1334 32.813V17.5695C40.1219 12.5816 36.4545 8.3568 31.5174 7.64458C31.522 7.55633 31.5325 7.47038 31.5325 7.38147V6.103C31.5325 5.70703 31.2117 5.38618 30.816 5.38618H29.5376C27.5712 5.38914 25.7763 6.50685 24.9063 8.2702C23.8637 6.74896 22.0662 5.92716 20.2337 6.1345C18.7853 3.88365 16.2933 2.52219 13.6166 2.51956V3.95287C15.6427 3.95517 17.5491 4.91115 18.763 6.5331C16.3523 7.58454 15.171 10.3258 16.062 12.8001L3.32985 17.6161C3.05395 17.723 2.87384 17.9904 2.87811 18.2863H2.86662V32.813C0.947449 33.5643 0 34.4399 0 35.4864C0 39.4543 14.0638 40.5028 21.5 40.5028C28.9362 40.5028 43 39.4546 43 35.4864C43 34.4399 42.0526 33.5643 40.1334 32.813ZM4.29993 25.073C4.7812 25.0717 5.24345 25.2616 5.5843 25.6012C6.85424 26.8691 8.91087 26.8691 10.1808 25.6012C10.8914 24.8932 12.0406 24.8932 12.7509 25.6012C14.0208 26.8691 16.0778 26.8691 17.3477 25.6012C18.058 24.8932 19.2072 24.8932 19.9177 25.6012C21.1874 26.8691 23.2443 26.8691 24.5143 25.6012C25.2245 24.8932 26.374 24.8932 27.0843 25.6012C28.3529 26.8708 30.4102 26.8711 31.6795 25.6028C31.6802 25.6021 31.6805 25.6018 31.6808 25.6012C32.3914 24.8932 33.5406 24.8932 34.2509 25.6012C35.464 26.8225 37.4223 26.8757 38.7001 25.7222V27.6217C38.3402 27.7752 38.0124 27.9954 37.7346 28.2709C37.0794 28.9241 36.0191 28.9241 35.364 28.2709L35.1645 28.0708C33.9487 26.859 31.9816 26.859 30.7658 28.0708L30.568 28.2693C29.9125 28.9225 28.8526 28.9225 28.1971 28.2693L27.998 28.0695C26.7822 26.8576 24.8151 26.8576 23.599 28.0695L23.4015 28.268C22.746 28.9212 21.686 28.9212 21.0305 28.268L20.8314 28.0682C19.6156 26.856 17.6482 26.856 16.4324 28.0682L16.2346 28.2667C15.5794 28.9199 14.5191 28.9199 13.864 28.2667L13.6648 28.0666C12.4487 26.8547 10.4816 26.8547 9.26584 28.0666L9.06802 28.2654C8.41287 28.9182 7.35257 28.9182 6.6971 28.2654L6.49796 28.0652C5.91434 27.4846 5.12337 27.1601 4.29993 27.1644V25.073ZM38.7001 23.9743C38.3795 24.1298 38.0872 24.3371 37.8343 24.5878C37.124 25.2957 35.9745 25.2957 35.2643 24.5878C33.9956 23.3185 31.9383 23.3178 30.6691 24.5865C30.6684 24.5868 30.6681 24.5874 30.6677 24.5878C29.9572 25.2957 28.808 25.2957 28.0977 24.5878C26.8278 23.3198 24.7708 23.3198 23.5009 24.5878C22.7906 25.2957 21.6414 25.2957 20.9311 24.5878C19.6612 23.3201 17.6042 23.3201 16.3343 24.5878C15.624 25.2957 14.4748 25.2957 13.7643 24.5878C12.4943 23.3201 10.4377 23.3201 9.16775 24.5878C8.45716 25.2957 7.30795 25.2957 6.59769 24.5878C5.98815 23.9792 5.16143 23.6377 4.29993 23.6384V19.0028H7.58681L9.61916 21.0355C10.6401 22.0545 12.2935 22.0545 13.3145 21.0355L15.3468 19.0028H18.3368L20.3692 21.0355C21.3901 22.0545 23.0435 22.0545 24.0645 21.0355L26.0968 19.0028H29.0868L31.1192 21.0355C32.1404 22.0541 33.7932 22.0541 34.8145 21.0355L36.8468 19.0028H38.7001V23.9743ZM4.29993 28.599C4.74348 28.597 5.1693 28.7719 5.48392 29.0842L5.68305 29.2843C6.89886 30.4962 8.86626 30.4962 10.0821 29.2843L10.2799 29.0855C10.935 28.4327 11.9953 28.4327 12.6505 29.0855L12.8499 29.2856C14.0657 30.4975 16.0328 30.4975 17.2486 29.2856L17.4464 29.0872C18.1016 28.434 19.1619 28.434 19.8174 29.0872L20.0165 29.287C21.2323 30.4992 23.1994 30.4992 24.4152 29.287L24.613 29.0885C25.2685 28.4353 26.3284 28.4353 26.9839 29.0885L27.1831 29.2886C28.3989 30.5005 30.3663 30.5005 31.5821 29.2886L31.7799 29.0898C32.435 28.4369 33.4953 28.4369 34.1505 29.0898L34.3496 29.2899C35.5484 30.485 37.4833 30.4998 38.6997 29.3227V34.7696H4.29993V28.599ZM31.4016 10.815L32.4235 11.8363L31.4016 12.8575C30.2859 13.9713 28.4792 13.9713 27.3638 12.8575L26.3419 11.8363L27.3638 10.815C28.4792 9.70121 30.2859 9.70121 31.4016 10.815ZM29.5376 6.8195H30.0999V7.38147C30.0999 7.79483 30.0306 8.20557 29.8952 8.59629C28.5911 8.43029 27.2834 8.87514 26.3511 9.8016L25.8229 10.3291C25.9407 8.36205 27.5669 6.8254 29.5376 6.8195ZM19.5041 7.78269C19.8744 8.60679 20.066 9.49945 20.0667 10.4029V11.1194H21.5V10.4029C21.4987 9.42793 21.315 8.46178 20.959 7.55403C22.931 7.6554 24.4473 9.3364 24.346 11.3084C24.2446 13.2804 22.5636 14.797 20.5916 14.6957C18.6196 14.5943 17.103 12.9133 17.2047 10.9413C17.2775 9.52537 18.1797 8.2866 19.5047 7.78269H19.5041ZM16.7378 14.0753C18.3644 16.3104 21.4948 16.8035 23.7299 15.1769C24.4992 14.6169 25.093 13.8496 25.4417 12.9641L26.3491 13.8709C28.0245 15.543 30.7376 15.543 32.4134 13.8709L33.9422 12.3428C34.222 12.0629 34.222 11.6096 33.9422 11.3294L32.415 9.8016C32.1145 9.50929 31.7723 9.26324 31.3993 9.07198C35.5933 9.72057 38.6906 13.326 38.7001 17.5695H36.5499C36.36 17.5695 36.1776 17.6453 36.0434 17.7795L33.8008 20.0221C33.3395 20.4814 32.5938 20.4814 32.1326 20.0221L29.8899 17.7795C29.7557 17.6453 29.5733 17.5695 29.3834 17.5695H25.7999C25.61 17.5695 25.4276 17.6453 25.2934 17.7795L23.0508 20.0221C22.5895 20.4814 21.8438 20.4814 21.3826 20.0221L19.1399 17.7795C19.0057 17.6453 18.8233 17.5695 18.6334 17.5695H15.0499C14.86 17.5695 14.6776 17.6453 14.5434 17.7795L12.3008 20.0221C11.8395 20.4814 11.0938 20.4814 10.6326 20.0221L8.38991 17.7795C8.25573 17.6453 8.07333 17.5695 7.88338 17.5695H7.50282L16.7378 14.0753ZM21.5 39.0695C8.51621 39.0695 1.43331 36.7045 1.43331 35.4864C1.43331 35.3014 1.76794 34.8713 2.86662 34.3667V35.4864C2.86662 35.882 3.18747 36.2029 3.58344 36.2029H39.4166C39.8125 36.2029 40.1334 35.882 40.1334 35.4864V34.3667C41.2321 34.8686 41.5667 35.2984 41.5667 35.4864C41.5667 36.7045 34.4838 39.0695 21.5 39.0695Z"/>
   </symbol>

   <symbol id='filter-arrow' viewBox='0 0 13 15'>
      <path d="M12.75 8.75001L11.875 7.875L7.125 12.625L7.125 0L5.87502 0L5.87502 12.625L1.125 7.875L0.250023 8.75001L6.50001 15L12.75 8.75001Z"/>
   </symbol>

   <symbol id='filter-close' viewBox='0 0 12 12'>
      <path d="M12 1.2L10.8 0L6 4.8L1.2 0L0 1.2L4.8 6L0 10.8L1.2 12L6 7.2L10.8 12L12 10.8L7.2 6L12 1.2Z"/>
   </symbol>
   
</svg>